<svg id="Layer_1" data-name="Layer 1" xmlns="http://www.w3.org/2000/svg" xmlns:xlink="http://www.w3.org/1999/xlink" viewBox="0 0 800 400"><defs><style>.cls-1{fill:#1a1a1a;}</style></defs><title>Artboard 1 copy 7</title><image width="779" height="827" transform="translate(101 56.5) scale(0.81)" xlink:href="../../../../../Personal/website/zheng/animations/phone.png"/><path class="cls-1" d="M430,241.45a9.21,9.21,0,0,0-1.07-2.09.47.47,0,0,1,.06-.6l1-1a.45.45,0,0,1,.67,0,11.18,11.18,0,0,1,1.52,2.86.45.45,0,0,1-.28.6l-1.33.44A.46.46,0,0,1,430,241.45Z"/><path class="cls-1" d="M438.37,241.45a10.1,10.1,0,0,0-1.07-2.09.45.45,0,0,1,.06-.6l1-1a.46.46,0,0,1,.68,0,11.51,11.51,0,0,1,1.52,2.86.46.46,0,0,1-.29.6l-1.32.44A.46.46,0,0,1,438.37,241.45Z"/><path class="cls-1" d="M447.13,241.69l-1.35-.37a.46.46,0,0,1-.31-.59,10.11,10.11,0,0,1,1.53-2.89.46.46,0,0,1,.67,0l1,.94a.46.46,0,0,1,0,.63,8.05,8.05,0,0,0-1.05,2A.46.46,0,0,1,447.13,241.69Z"/><path class="cls-1" d="M449.7,246.6h0a.47.47,0,0,1-.46-.47V244.7H428.38v1.43a.47.47,0,0,1-.46.47h-1.4a.47.47,0,0,1-.46-.47v-1.9a1.85,1.85,0,0,1,1.86-1.85H451.1a.47.47,0,0,1,.46.46v1.9A1.86,1.86,0,0,1,449.7,246.6Z"/><path class="cls-1" d="M450,257.92a39.8,39.8,0,0,1-8.19-1.65c6.51-3.43,6.74-7.53,6.74-7.79v-.95a.47.47,0,0,0-.46-.47H431.39a1.85,1.85,0,0,0-1.85,1.86.47.47,0,0,0,.46.46h15.85c-.64,1.39-2.39,3.73-7.05,5.72a14.32,14.32,0,0,1-5.72-4.36.47.47,0,0,0-.63-.13l-1.16.76a.47.47,0,0,0-.14.66,15.17,15.17,0,0,0,4.69,4.14,51.33,51.33,0,0,1-8.3,1.74.47.47,0,0,0-.41.51l.18,1.38a.46.46,0,0,0,.52.4,49.18,49.18,0,0,0,11-2.57,39.68,39.68,0,0,0,11.07,2.61.46.46,0,0,0,.5-.44l.08-1.39A.47.47,0,0,0,450,257.92Z"/><path class="cls-1" d="M453.3,241.55l-.95-1a.47.47,0,0,1,0-.65s.8-.78,1-1a13.29,13.29,0,0,0,1.93-3.08l.52-1,2.07,1-.51,1a16.6,16.6,0,0,1-2.23,3.53,10,10,0,0,1-1.16,1.19A.47.47,0,0,1,453.3,241.55Z"/><path class="cls-1" d="M455.6,253.92h-1.85a.46.46,0,0,1-.46-.47v-9.23a1.85,1.85,0,0,1,1.85-1.85h5.33a.47.47,0,0,1,.47.46v9.23a1.86,1.86,0,0,1-1.86,1.85H455.6m0-2.31h3V244.7h-3Z"/><path class="cls-1" d="M478.7,234.78h-9.47a1.85,1.85,0,0,0-1.85,1.85.46.46,0,0,0,.46.46h1.89a8.21,8.21,0,0,1-3,2.35l-.79.4a.47.47,0,0,0-.21.62l.62,1.25a.46.46,0,0,0,.62.21l.81-.4a12.06,12.06,0,0,0,1.3-.76l2.23,3.07a31.8,31.8,0,0,1-4.53,2.55l-.82.38a.48.48,0,0,0-.23.62l.59,1.26a.46.46,0,0,0,.61.23l.85-.39c4.32-2,11.35-6,11.35-12.39v-.85A.46.46,0,0,0,478.7,234.78Zm-5.52,7.64-2.28-3.14a9.16,9.16,0,0,0,1.58-2.19h4.25A10.05,10.05,0,0,1,473.18,242.42Z"/><path class="cls-1" d="M479.39,248h-5.17l.26-.36a.47.47,0,0,0-.11-.65l-1.12-.8a.47.47,0,0,0-.65.12l-.52.76a17.11,17.11,0,0,1-5.35,4.42l-.8.47a.47.47,0,0,0-.18.63l.69,1.22a.47.47,0,0,0,.63.18l.85-.48c.05,0,.35-.19.8-.48l3.57,3.42a18.12,18.12,0,0,1-5.67,1.5l-.87.08a.46.46,0,0,0-.42.49l.11,1.39a.46.46,0,0,0,.5.42l.93-.07c4.57-.36,13-2.84,13-10.81v-1A.47.47,0,0,0,479.39,248Zm-5,7.24-3.71-3.55a20.89,20.89,0,0,0,1.59-1.37h5.21A7.36,7.36,0,0,1,474.37,255.23Z"/><path class="cls-1" d="M448.55,237.09H427.68a.46.46,0,0,1-.46-.46h0a1.85,1.85,0,0,1,1.85-1.85h20.87a.46.46,0,0,1,.46.46h0A1.85,1.85,0,0,1,448.55,237.09Z"/><path class="cls-1" d="M464.88,235.24a.46.46,0,0,0-.47-.46h-9.27a1.85,1.85,0,0,0-1.85,1.85.45.45,0,0,0,.46.46h8.8c0,10.91-.49,19.52-1.06,20.61-.37.48-2.3.7-4.26.37l-.94-.19a.46.46,0,0,0-.56.37l-.22,1.33a.46.46,0,0,0,.38.54,25.72,25.72,0,0,0,3.32.37c1.42-.05,3.26-.28,4.1-1.36,1.22-1.55,1.53-12.49,1.56-22Z"/><path class="cls-1" d="M418.82,265a.93.93,0,0,1-1.57-.66V242.89a8.12,8.12,0,0,1,7.63-8.1.47.47,0,0,1,.48.47v.21a1.83,1.83,0,0,1-1.39,1.79,5.81,5.81,0,0,0-4.4,5.63v18.39a14.27,14.27,0,0,1,5.16-2.6.47.47,0,0,1,.55.4l.18,1.38a.46.46,0,0,1-.37.51c-2.27.53-5,2.75-5.88,3.62Z"/><path class="cls-1" d="M480.89,259.79V258.4a.46.46,0,0,1,.44-.46,5.8,5.8,0,0,0,5.35-5.78V237.09h-5.33a.45.45,0,0,1-.46-.46h0a1.85,1.85,0,0,1,1.85-1.85h5.8a.46.46,0,0,1,.46.46v16.92a8.12,8.12,0,0,1-7.63,8.1A.47.47,0,0,1,480.89,259.79Z"/><path class="cls-1" d="M328.45,234.78h12.06v4.14h-7.16v5.43H339v4.1h-5.68v9.9h-4.9Z"/><path class="cls-1" d="M353.22,241.25a7.07,7.07,0,0,1,3,2.58,8.76,8.76,0,0,1,1.39,3.61,23.07,23.07,0,0,1,.15,3.47H345.06a4.18,4.18,0,0,0,1.83,3.68,4.58,4.58,0,0,0,2.51.66,3.85,3.85,0,0,0,2.54-.81,3.69,3.69,0,0,0,.94-1.2h4.66a5.72,5.72,0,0,1-1.69,3.16,8.5,8.5,0,0,1-6.57,2.55,9,9,0,0,1-6.15-2.15,9.34,9.34,0,0,1-2.66-7q0-4.55,2.4-7a8.42,8.42,0,0,1,6.24-2.42A9.89,9.89,0,0,1,353.22,241.25Zm-6.83,3.94a4.84,4.84,0,0,0-1.22,2.7H353a3.8,3.8,0,0,0-1.22-2.76,4,4,0,0,0-2.7-.94A3.65,3.65,0,0,0,346.39,245.19Z"/><path class="cls-1" d="M369.34,241.17a5.63,5.63,0,0,1,2,1.93v-8.32H376v23.57h-4.44v-2.42a6.35,6.35,0,0,1-2.23,2.26,6.25,6.25,0,0,1-3.11.71,6.48,6.48,0,0,1-5.14-2.48,9.46,9.46,0,0,1-2.1-6.35,10.94,10.94,0,0,1,2.06-7,6.7,6.7,0,0,1,5.5-2.56A5.66,5.66,0,0,1,369.34,241.17Zm1.13,12.44a6.37,6.37,0,0,0,1-3.73c0-2.14-.53-3.66-1.61-4.58a3.47,3.47,0,0,0-2.31-.83,3.21,3.21,0,0,0-2.94,1.51,7.06,7.06,0,0,0-.94,3.76,6.87,6.87,0,0,0,1,3.86,3.21,3.21,0,0,0,2.89,1.45A3.39,3.39,0,0,0,370.47,253.61Z"/><path class="cls-1" d="M383.36,240.89v10.53a5.59,5.59,0,0,0,.35,2.24,2.43,2.43,0,0,0,2.44,1.33,3.2,3.2,0,0,0,3.19-1.89,7,7,0,0,0,.44-2.71v-9.5h4.63v17.46H390v-2.46a4.48,4.48,0,0,0-.32.48,3.41,3.41,0,0,1-.61.7,6.39,6.39,0,0,1-2.07,1.32,7.12,7.12,0,0,1-2.34.35c-2.58,0-4.31-.93-5.21-2.79a10.69,10.69,0,0,1-.75-4.53V240.89Z"/><path class="cls-1" d="M412.22,242.77q2.13,2.25,2.13,6.63c0,3.07-.69,5.42-2.08,7a6.79,6.79,0,0,1-5.38,2.42,5.64,5.64,0,0,1-3.48-1,6.76,6.76,0,0,1-1.48-1.68v9.09h-4.52V240.89h4.37v2.58a7.62,7.62,0,0,1,1.58-1.79,5.83,5.83,0,0,1,3.64-1.17A6.88,6.88,0,0,1,412.22,242.77Zm-3.5,3.28a3.27,3.27,0,0,0-3-1.55,3.44,3.44,0,0,0-3.45,2.35,9,9,0,0,0-.48,3.17c0,2,.54,3.46,1.63,4.28a3.75,3.75,0,0,0,2.3.72,3.33,3.33,0,0,0,2.93-1.47,7.7,7.7,0,0,0,.09-7.5Z"/></svg>