<svg xmlns="http://www.w3.org/2000/svg" viewBox="0 0 400 240"><defs><style>.cls-1{fill:#fff;}.cls-2{fill:#f7a872;}.cls-3{fill:#333;}.cls-4{fill:#ef9456;}.cls-5{fill:#ce7436;}.cls-6{fill:#4f4f4f;}.cls-7{fill:#bababa;}.cls-8{fill:#79d34f;}</style></defs><title>Asset 6</title><g id="Layer_2" data-name="Layer 2"><g id="how-it-works"><rect class="cls-1" width="400" height="240"/><path class="cls-2" d="M139.17,100.44s-6.08,5.16-12.83,6.16-8.55-7.2-7.19-9.95c1.43-2.91,9.2-6.88,9.2-6.88"/><path class="cls-2" d="M140.51,122.09s-8,6.27-11.46,6-6.92-6.72-6.92-6.72L129,114l13.61-5.63,6.44,10.51Z"/><path class="cls-2" d="M155.75,162.93s5.65-4.16,6.93-6,.52-6.85.52-6.85l-11,2.9Z"/><path class="cls-3" d="M123.15,121.41c.22.24.44.49.64.74h-.13a39.61,39.61,0,0,0,2.78-3,19.35,19.35,0,0,0,1.22-1.64,5.17,5.17,0,0,0,.82-1.86,4.51,4.51,0,0,1-.68,1.94,12.66,12.66,0,0,1-1.18,1.71,25.15,25.15,0,0,1-2.84,3l-.07.07-.06-.08C123.47,122,123.31,121.69,123.15,121.41Z"/><path class="cls-4" d="M124.66,93.63a10.57,10.57,0,0,0,0,5.69,53.22,53.22,0,0,0,2.56,7.12l1.68-.4Z"/><path class="cls-5" d="M197,167.47c-4.36-3.36-15.57-11.61-17.78-13.24-3.09-2.28-9-8-9-8l14.08-2.88,33.9,30.28S202.75,171.87,197,167.47Z"/><path class="cls-4" d="M132,114.91c-1.25,1.45-.21,5.33.56,8.43.24,1,1,3.33,1,3.33l1.74-1Z"/><path class="cls-2" d="M244.33,140.36c-11.8-23.6-16.28-40.46-23.27-47.57-4.48-4.55-33.68-19.92-42.18-20-19.76-.08-7.35-3.15-13.79-.46-15.05,6.28-5.33,16.4-4.39,19.42s8.89,7.82,17,8.4c1.25.09,11,2.76,12,4,1.83,2.26,1.69,6,.83,8.15s-12.36,6.05-18.07-1.45-22.09-12.19-20.08-3.93,25.91,31.27,29.58,37.15c5.2,8.33,22.92,24.73,33,30s23.15,33.72,23.15,33.72l23.22-34.59Z"/><path class="cls-3" d="M108.18,28.07c-1.13,1.68-2.9,5.19-2.25,8.33.25,1.27,29,90.66,37.62,116.67a7.44,7.44,0,0,0,8.69,4.91l34.64-9.8"/><path class="cls-3" d="M207.74,95.47a27.18,27.18,0,0,0-3.92,3.15,38.4,38.4,0,0,0-3.33,3.76c-1.05,1.31-2,2.69-2.92,4.09s-1.8,2.85-2.63,4.32a36.21,36.21,0,0,1,2.3-4.52,44.36,44.36,0,0,1,2.86-4.2,33,33,0,0,1,3.46-3.73A19.52,19.52,0,0,1,207.74,95.47Z"/><path class="cls-4" d="M193.55,115.49s6.51,2.92,11.11,3.51a21.1,21.1,0,0,0,7.82-.34s-17.57-6.92-18.71-8.83A34.87,34.87,0,0,0,193.55,115.49Z"/><path class="cls-1" d="M164.87,18l39.52,116a6.28,6.28,0,0,1-4.2,7.75L153.28,155a6.26,6.26,0,0,1-7.76-4.34l-37.32-117a6.28,6.28,0,0,1,4.46-7.83L157.37,13.6A6.25,6.25,0,0,1,164.87,18Z"/><path class="cls-6" d="M151.53,156.29a7.08,7.08,0,0,1-3.45-.9,7.24,7.24,0,0,1-3.52-4.43L107.25,34a7.34,7.34,0,0,1,.69-5.73,7.19,7.19,0,0,1,4.47-3.38l44.7-12.27a7.23,7.23,0,0,1,8.72,5.08l39.5,116a7.31,7.31,0,0,1-4.85,9L153.56,156A7.08,7.08,0,0,1,151.53,156.29Zm7.35-141.87a5.57,5.57,0,0,0-1.27.15L112.92,26.85a5.19,5.19,0,0,0-3.25,2.44,5.29,5.29,0,0,0-.5,4.15l37.31,117a5.31,5.31,0,0,0,2.56,3.25,5.17,5.17,0,0,0,4,.43l46.92-13.28a5.29,5.29,0,0,0,3.5-6.52l-39.51-116A5.26,5.26,0,0,0,158.88,14.42Z"/><path class="cls-7" d="M185.5,146.8a50.7,50.7,0,0,1-9.9-10.45c-2.31-3.32-7.27-10.56-8.51-13.3s-5.73-12.87-4.85-15.86l.88-3Z"/><path class="cls-2" d="M204.66,119c-10.84-3.79-20.64-11.25-24.92-16.88-5.71-7.51-18-11.44-18.79-3-.59,6,9.36,28.71,21.27,38.23,1.36,1.08,26.77,20.41,31.36,23.81"/><path class="cls-4" d="M221.27,179.64c-3.43-4.18-6-4.89-12.43-9.43-3.43-2.43-9.46-7.72-15.49-13.14-12.27-11-18.09-26.67-21.45-31.54a62.8,62.8,0,0,1-7.64-14.18s74,71.6,75.05,71.09-9,10.48-9,10.48S223.84,182.78,221.27,179.64Z"/><path class="cls-3" d="M162.67,101.29a4.19,4.19,0,0,1-.33-2,2.92,2.92,0,0,1,.95-1.8c.24-.24.49-.46.74-.68a2.09,2.09,0,0,1,.44-.33,1.91,1.91,0,0,1,.54-.18,4.93,4.93,0,0,1,2.07.13,18.7,18.7,0,0,1,3.75,1.38,17.71,17.71,0,0,1,3.4,2.12l.3.24-.28.27q-1.83,1.74-3.71,3.42c-1.24,1.13-2.51,2.23-3.8,3.32,1.13-1.24,2.29-2.47,3.47-3.66s2.36-2.4,3.56-3.57l0,.51a19.36,19.36,0,0,0-3.28-2,17.61,17.61,0,0,0-3.58-1.4,5.24,5.24,0,0,0-1.82-.19,1.25,1.25,0,0,0-.39.11,1.41,1.41,0,0,0-.36.23c-.26.19-.52.39-.76.6a2.93,2.93,0,0,0-1,1.52A4.58,4.58,0,0,0,162.67,101.29Z"/><path class="cls-1" d="M244,226.17,221.31,199s-6.53-28.6,35.71-37.87l38.3,42.81"/><path class="cls-3" d="M244,226.17l-11.43-13.5-11.37-13.55,0,0v0a24.89,24.89,0,0,1-.2-7.26,28,28,0,0,1,1.7-7.05,30.38,30.38,0,0,1,8.27-11.81,45.64,45.64,0,0,1,12.26-7.67A74.83,74.83,0,0,1,257,160.9l.13,0,.09.11,19.1,21.45q9.57,10.71,19,21.51-9.66-10.62-19.27-21.3l-19.21-21.35.23.08a77.24,77.24,0,0,0-13.72,4.32,45.22,45.22,0,0,0-12.15,7.57A29.9,29.9,0,0,0,223,184.87a27.76,27.76,0,0,0-1.69,7,24.68,24.68,0,0,0,.17,7.13l0-.08,11.28,13.62Z"/><path class="cls-1" d="M275.31,187s-9.25,1.3-18,9.91-13.43,21.32-13.43,21.32"/><path class="cls-3" d="M275.31,187a28.15,28.15,0,0,0-5.47,1.76,36.31,36.31,0,0,0-5.11,2.64,40.67,40.67,0,0,0-8.8,7.31,59.92,59.92,0,0,0-6.8,9.26c-1,1.64-1.92,3.33-2.8,5s-1.72,3.44-2.45,5.22a66.38,66.38,0,0,1,4.92-10.45,57.27,57.27,0,0,1,6.76-9.4,39.52,39.52,0,0,1,9-7.31A31.8,31.8,0,0,1,275.31,187Z"/><path class="cls-1" d="M227.76,197c2.48,1,3.22,3.19,1.88,4.23s-4.59-.61-5-2.16C224.27,197.69,226.37,196.41,227.76,197Z"/><path class="cls-3" d="M227.76,197a5,5,0,0,1,1.7,1.07,2.73,2.73,0,0,1,.95,1.79,1.78,1.78,0,0,1-1.08,1.78,3,3,0,0,1-2.13,0,5.36,5.36,0,0,1-1.79-1.08,2.5,2.5,0,0,1-.94-1.87,2.13,2.13,0,0,1,1.32-1.54A2.55,2.55,0,0,1,227.76,197Zm0,0a2.48,2.48,0,0,0-1.94.2,1.93,1.93,0,0,0-1.1,1.48,2.26,2.26,0,0,0,1,1.54,5.18,5.18,0,0,0,1.67.93,2.58,2.58,0,0,0,1.81.1,1.49,1.49,0,0,0,1-1.38,2.61,2.61,0,0,0-.76-1.75A5.19,5.19,0,0,0,227.76,197Z"/><path class="cls-1" d="M235.9,204.48c2.48,1,3.22,3.19,1.89,4.23s-4.6-.61-5-2.17C232.42,205.19,234.52,203.92,235.9,204.48Z"/><path class="cls-3" d="M235.9,204.48a4.94,4.94,0,0,1,1.71,1.07,2.82,2.82,0,0,1,.95,1.79,1.8,1.8,0,0,1-1.08,1.78,3.06,3.06,0,0,1-2.13,0,5.13,5.13,0,0,1-1.79-1.09,2.43,2.43,0,0,1-.94-1.87,2.14,2.14,0,0,1,1.31-1.53A2.51,2.51,0,0,1,235.9,204.48Zm0,0a2.45,2.45,0,0,0-1.93.2,1.93,1.93,0,0,0-1.1,1.48,2.24,2.24,0,0,0,1,1.53,4.93,4.93,0,0,0,1.67.94,2.7,2.7,0,0,0,1.81.1,1.48,1.48,0,0,0,1-1.38,2.53,2.53,0,0,0-.75-1.75A4.82,4.82,0,0,0,235.9,204.48Z"/><path class="cls-3" d="M155.08,156.92a5,5,0,0,1,1.37,2,3.35,3.35,0,0,1,.27,1.21,1,1,0,0,1-.22.67,5.71,5.71,0,0,1-.39.47c0-.41.14-.85,0-1.07s-.25-.66-.39-1A10.17,10.17,0,0,1,155.08,156.92Z"/><path class="cls-6" d="M123.3,23.56c.33,1.18,1.77,2.47,2.66,2.28s19.63-5.37,20.48-5.71.67-1.69.43-2.8"/><ellipse class="cls-8" cx="149.53" cy="60" rx="15.98" ry="16.74" transform="matrix(0.99, -0.12, 0.12, 0.99, -5.99, 17.88)"/><path class="cls-1" d="M148.84,69.87l-9.27-3.5a1,1,0,0,1,.71-1.87l7.7,2.91L157.12,52a1,1,0,0,1,1.72,1Z"/><path class="cls-3" d="M145.86,85.06l-.34.57,1.21-.32.18.68-3,.81A16.61,16.61,0,0,0,145,89.6c.12.23.25.44.38.64a11.28,11.28,0,0,0,.45-3.09l.72.1a12,12,0,0,1-.66,3.71,5,5,0,0,0,.66.7c.45.39.78.55,1,.5s.2-.61.08-1.67l.74.19c.11,1.37-.05,2.12-.5,2.24a1.94,1.94,0,0,1-1.56-.54,4.51,4.51,0,0,1-.71-.68,7.09,7.09,0,0,1-1.95,2.47l-.55-.49a6.86,6.86,0,0,0,2-2.62A11.14,11.14,0,0,1,144.4,90a17.23,17.23,0,0,1-1.26-3l-3.38.9.43,1.64,2.42-.64a17.71,17.71,0,0,1,.63,3.29.92.92,0,0,1-.75.9c-.24.07-.53.12-.85.19l-.39-.59c.39-.08.72-.16,1-.23s.31-.25.29-.54a16.11,16.11,0,0,0-.45-2.16l-1.71.45.08.3a8,8,0,0,1,0,4.56l-.68-.34a6.86,6.86,0,0,0,0-4l-.88-3.28,4.08-1.09c-.15-.49-.29-1-.44-1.52l.73-.19c.15.55.29,1,.44,1.52l1.84-.49a7.46,7.46,0,0,0-1.48-.79l.34-.56A9.13,9.13,0,0,1,145.86,85.06Z"/><path class="cls-3" d="M147.87,85.3l-.18-.68,3.56-.94.18.68-1.42.37,1.21,4.53c.48-.29.95-.59,1.4-.92l.19.71a28.06,28.06,0,0,1-3.34,2l-.36-.67c.48-.22,1-.47,1.44-.72l-1.26-4.72Zm5.64-3.38.53,2,2.51-.67c.82,3.08,1.27,5,1.37,5.75s-.36,1.41-1.35,1.67c-.18,0-.48.11-.91.2l-.34-.62c.37-.07.68-.15,1-.22a1,1,0,0,0,.89-1.15c-.08-.53-.46-2.11-1.14-4.75l-1.8.48c.72,2.91.49,5.24-.67,7l-.71-.35c1.11-1.61,1.32-3.77.65-6.46l-1.57.42-.19-.69,1.57-.42-.53-2Z"/><path class="cls-3" d="M159.85,81l-.21-.81.73-.19.21.81,2.6-.7-.21-.81.73-.19.21.81,2.31-.61.17.64-2.31.61.2.72-.73.19-.2-.72-2.6.7.19.72-.73.19-.19-.72-2.31.62-.17-.65Zm1.58,1.68a9.62,9.62,0,0,1-.75,1.44A6,6,0,0,1,162.21,87a3.29,3.29,0,0,1,.1,1.91,1.16,1.16,0,0,1-.75.52l-.95.23-.37-.6c.32-.06.65-.12,1-.21a.6.6,0,0,0,.46-.39,3.29,3.29,0,0,0-.15-1.33,6.32,6.32,0,0,0-.3-.87,7.75,7.75,0,0,1-1.54,1.88l-.54-.48a6.66,6.66,0,0,0,1.75-2.09,4.18,4.18,0,0,0-.62-.83A10.63,10.63,0,0,1,159,86l-.53-.49a6.58,6.58,0,0,0,1.3-1.28,4.05,4.05,0,0,0-1.31-.62l.41-.58a4.5,4.5,0,0,1,1.3.64,9.42,9.42,0,0,0,.59-1.19Zm2.55.78c-.17-.71-.31-1.27-.41-1.65l.71-.19c.12.46.26,1,.42,1.65l2.27-.6.18.67-2.21.58A6.3,6.3,0,0,0,168.37,87l-.33.66A6.3,6.3,0,0,1,164.89,85a6.85,6.85,0,0,1-1.35,3.93l-.61-.39a6,6,0,0,0,1.19-4.35l-2,.53L162,84Zm2.7-1.37-.44.51a9.8,9.8,0,0,0-1.47-1l.44-.46A10.26,10.26,0,0,1,166.68,82.11Z"/><path class="cls-3" d="M172.36,84l-.61.16-1.47-5.54-1.92.51,1.51,5.68-.63.16-1.68-6.31,3.16-.84Zm-2.56-4.42.85,3.19a6.67,6.67,0,0,1,.2,2.76,3.48,3.48,0,0,1-1.14,1.82l-.51-.46a3.08,3.08,0,0,0,1.07-1.68,5.69,5.69,0,0,0-.17-2.29l-.85-3.2Zm3.54,6.17-.34.6A9.89,9.89,0,0,0,171.23,85l.32-.53A12.38,12.38,0,0,1,173.34,85.7Zm.09-8.06a6.59,6.59,0,0,0-.64-.8l.68-.31c.21.27.43.58.65.93L176,77l.18.67-4.61,1.22-.17-.67Zm-.15,2.91a9.33,9.33,0,0,0-.95-1.27l.59-.42A10.6,10.6,0,0,1,174,80.37l1.05-.28a15.82,15.82,0,0,0,.19-1.86l.73.06a8.63,8.63,0,0,1-.24,1.62l1.25-.34.19.7-5,1.31-.19-.69Zm4.53,4.52-.67.18-.14-.54-2.46.65.15.54-.67.18-1-3.74,3.8-1Zm-1-1-.49-1.86-2.46.66.49,1.85Z"/></g></g></svg>