<svg xmlns="http://www.w3.org/2000/svg" viewBox="0 0 400 240"><defs><style>.cls-1{fill:#fff;}.cls-2{fill:#f7a872;}.cls-3{fill:#dd9666;}.cls-4{fill:#333;}.cls-5{fill:#1e1e1e;}.cls-6{fill:#212121;}.cls-7{fill:#e8e8e8;}.cls-8{fill:#565656;}.cls-9{fill:#eaeaea;}.cls-10{fill:#f9f9f9;}.cls-11{fill:#f2f2f2;}.cls-12{fill:#cecece;}.cls-13{opacity:0.05;}.cls-14{fill:#1c1c1c;}.cls-15{fill:#f7f7f7;}</style></defs><title>Asset 5</title><g id="Layer_2" data-name="Layer 2"><g id="how-it-works"><rect class="cls-1" width="400" height="240"/><path class="cls-2" d="M136.69,60.48S139,90.53,142,96.17c2,3.61,2.5,5.59.72,6.11-1.31.38-1.38-3.47-1.06.85.39,5.34-6.65,27.05-12.5,22.79-6.28-4.58-9.35,10.92-8,15.15,2.51,7.78,12.19,14.06,12.19,14.06L67,157.76s19.47-12.51,22.94-18.08A30.87,30.87,0,0,0,93.38,117c-2.09-8-4-57.73-4-57.73Z"/><path class="cls-3" d="M137.9,75c-1,2.19-.68,2.53-2.76,3s-16.77.65-17.9,3.61-1.44,7.79-.95,9.05,1.71,7.8.81,8.49-10.12,0-10.12,0S103.67,81,103.9,80.55s14.68-10.67,15.18-11S137.9,75,137.9,75Z"/><path class="cls-4" d="M85.44,121C79,108.12,72.76,96.22,72.17,84.9c-.77-14.54,6.88-33.49,27.1-34.59,11.82-.64,47.8-2.44,46,11.34s-13.13,14.88-18,16.46-13.1,3.4-7.59,10.14-15.94.29-2.17,15.89c3.75,4.25.75,14-2.83,17.38C106.44,129.19,88.37,126.8,85.44,121Z"/><path class="cls-1" d="M114.65,96.14c-1.85,8.8,1.82,12,8.16,12,3.82,0,7.66-4.38,8.67-10.7,1.22-7.65-2.21-11-6.89-11.09C119.42,86.23,116.2,88.78,114.65,96.14Z"/><path class="cls-5" d="M115.9,96.58c-1.42,6.41,1.52,9.62,6.9,9.62,3.25,0,6.51-3.71,7.37-9.09,1-6.49-1.86-8.78-5.83-8.86C120,88.16,117.27,90.34,115.9,96.58Z"/><path class="cls-6" d="M122,96.22a107.42,107.42,0,0,1-3.88-14.59c-1-4.87-1.74-9.75-2.42-14.61s-1.19-9.77-2-14.39c-.12-.57-.24-1.12-.39-1.64a8.64,8.64,0,0,0-.47-1.26c0-.2-.53-.4-1-.52A11,11,0,0,0,110.1,49a26.31,26.31,0,0,0-3.65.07c-1.24.07-2.48.21-3.72.36A31,31,0,0,1,110,47.21a11.27,11.27,0,0,1,2-.14,4.5,4.5,0,0,1,2.43.72,6.74,6.74,0,0,1,1.65,1.78,14.58,14.58,0,0,1,1.06,1.8,40.78,40.78,0,0,1,2.73,7.31c.7,2.46,1.22,4.93,1.67,7.42a101.89,101.89,0,0,1,1.48,15q.11,3.77-.12,7.55A52.08,52.08,0,0,1,122,96.22Z"/><path class="cls-4" d="M134.47,118.26a9.44,9.44,0,0,1-4.51-1.11c-7-3.77-8.38-15.69-8.44-16.19l1-.11c0,.12,1.34,11.9,7.92,15.42,2.93,1.57,6.53,1.27,10.68-.9l.46.89A15.58,15.58,0,0,1,134.47,118.26Z"/><polygon class="cls-7" points="45.88 197.45 150.64 156.49 354.13 170.72 354.13 197 45.88 197.45"/><polyline class="cls-8" points="262.74 197.26 259.92 181.17 225.1 181.17 235.21 197.35"/><polygon class="cls-8" points="169.46 90.75 327.95 77.96 327.95 193.17 169.46 188.11 169.46 90.75"/><polygon class="cls-1" points="171.93 93.37 324.86 81.3 324.86 190.2 171.93 185.34 171.93 93.37"/><polygon class="cls-9" points="206.91 180.15 177.52 179.24 177.52 109.7 206.91 107.93 206.91 180.15"/><rect class="cls-4" x="181.99" y="114.21" width="20.15" height="0.75" transform="translate(-5.71 10.17) rotate(-2.99)"/><line class="cls-9" x1="182.01" y1="120.98" x2="202.13" y2="120.07"/><rect class="cls-4" x="182" y="120.15" width="20.15" height="0.75" transform="translate(-5.14 8.61) rotate(-2.53)"/><polygon class="cls-1" points="182.02 127.21 181.99 126.46 202.12 125.7 202.14 126.45 182.02 127.21"/><polygon class="cls-4" points="182.02 133.06 182 132.31 202.12 131.71 202.14 132.46 182.02 133.06"/><polygon class="cls-4" points="182.01 138.92 182 138.17 202.12 137.72 202.14 138.47 182.01 138.92"/><rect class="cls-1" x="182" y="143.88" width="20.13" height="0.75" transform="translate(-2.23 3.02) rotate(-0.9)"/><rect class="cls-1" x="182.01" y="149.81" width="20.13" height="0.75" transform="translate(-1.17 1.51) rotate(-0.45)"/><rect class="cls-1" x="182.01" y="155.75" width="20.13" height="0.75"/><rect class="cls-1" x="191.69" y="151.99" width="0.75" height="20.13" transform="translate(28.45 352.8) rotate(-89.53)"/><rect class="cls-1" x="191.69" y="157.93" width="0.75" height="20.13" transform="matrix(0.02, -1, 1, 0.02, 21.08, 357.39)"/><rect class="cls-1" x="191.69" y="163.86" width="0.75" height="20.13" transform="translate(13.7 361.87) rotate(-88.66)"/><path class="cls-3" d="M127.59,125.28c1.95,0,2.34,2.59,5.55.16,2-1.51,4.43-6.89,4.43-6.89a48.81,48.81,0,0,0-3.62,3.7c-1.46,1.65-4,2.13-5.47,2.27a12,12,0,0,0-4.79,1.1c-1.7.82-5.58,4.45-5.58,11,0,3.75,3,10.31,6.74,15.46l4.32-.23a27,27,0,0,1-6.32-7.23,16.22,16.22,0,0,1-.83-13.59,10,10,0,0,1,4-5.32A2.12,2.12,0,0,1,127.59,125.28Z"/><path class="cls-4" d="M141,116.6c-2.16.31-3.31-.22-1.62-2.76,1.22-1.83,3.24-1.25,3.24,0S142.06,116.45,141,116.6Z"/><path class="cls-10" d="M45.87,197.45c2.41-13.83,6.44-31.16,11.85-34.31C67,157.76,79.8,148.85,79.8,148.85c5.2,1.85,35.29,3.76,46.52,0,22.07,12.68,32.1,8.27,38.92,23.51a260.31,260.31,0,0,1,9.12,25.09"/><path class="cls-11" d="M166,197.45c-2.42-7.67-5.41-15.75-8.24-19.61-5.91-8.06-34.52-28.18-34.52-28.18a29.62,29.62,0,0,0,3.11-.81c22.07,12.68,32.1,8.27,38.92,23.51a260.31,260.31,0,0,1,9.12,25.09"/><path class="cls-4" d="M108.1,168.35a3.12,3.12,0,0,0-.31-.6.13.13,0,0,1,0-.17l.29-.27a.12.12,0,0,1,.19,0,3.27,3.27,0,0,1,.43.82.13.13,0,0,1-.08.17l-.38.13A.13.13,0,0,1,108.1,168.35Z"/><path class="cls-4" d="M110.48,168.35a3.05,3.05,0,0,0-.3-.6.14.14,0,0,1,0-.17l.29-.27a.12.12,0,0,1,.19,0,3.73,3.73,0,0,1,.44.82.13.13,0,0,1-.08.17l-.38.13A.14.14,0,0,1,110.48,168.35Z"/><path class="cls-4" d="M113,168.42l-.39-.11a.13.13,0,0,1-.09-.17,2.79,2.79,0,0,1,.44-.82.13.13,0,0,1,.19,0l.29.27a.14.14,0,0,1,0,.18,2.08,2.08,0,0,0-.31.58A.12.12,0,0,1,113,168.42Z"/><path class="cls-4" d="M113.72,169.82h0a.13.13,0,0,1-.13-.13v-.41h-6v.41a.13.13,0,0,1-.13.13h-.4a.13.13,0,0,1-.13-.13v-.54a.52.52,0,0,1,.53-.53h6.62a.13.13,0,0,1,.13.13v.54A.53.53,0,0,1,113.72,169.82Z"/><path class="cls-4" d="M113.81,173.06a11.5,11.5,0,0,1-2.34-.48c1.86-1,1.92-2.15,1.93-2.22v-.27a.14.14,0,0,0-.14-.14h-4.77a.53.53,0,0,0-.53.53.13.13,0,0,0,.13.14h4.53a3.62,3.62,0,0,1-2,1.63A4,4,0,0,1,109,171a.14.14,0,0,0-.18,0l-.33.22a.13.13,0,0,0,0,.18,4.37,4.37,0,0,0,1.34,1.19,14.77,14.77,0,0,1-2.37.49.14.14,0,0,0-.12.15l0,.39a.13.13,0,0,0,.15.12,13.75,13.75,0,0,0,3.13-.74,11.2,11.2,0,0,0,3.17.75.14.14,0,0,0,.14-.13l0-.39A.13.13,0,0,0,113.81,173.06Z"/><path class="cls-4" d="M114.75,168.38l-.27-.29a.14.14,0,0,1,0-.19l.28-.28a4,4,0,0,0,.55-.88l.14-.29.6.29-.15.3a4.24,4.24,0,0,1-.64,1,2.1,2.1,0,0,1-.33.34A.14.14,0,0,1,114.75,168.38Z"/><path class="cls-4" d="M115.41,171.91h-.53a.13.13,0,0,1-.14-.13v-2.63a.53.53,0,0,1,.53-.53h1.53a.13.13,0,0,1,.13.13v2.63a.53.53,0,0,1-.53.53h-1m0-.66h.86v-2h-.86Z"/><path class="cls-4" d="M122,166.44h-2.7a.53.53,0,0,0-.53.53.13.13,0,0,0,.13.14h.54a2.32,2.32,0,0,1-.85.67l-.22.11a.12.12,0,0,0-.06.18l.17.35a.13.13,0,0,0,.18.06l.23-.11a2.58,2.58,0,0,0,.37-.22l.64.88a8.75,8.75,0,0,1-1.29.73l-.24.11a.14.14,0,0,0-.06.18l.16.36a.14.14,0,0,0,.18.06l.24-.11c1.23-.57,3.24-1.73,3.24-3.54v-.24A.13.13,0,0,0,122,166.44Zm-1.58,2.19-.64-.9a2.79,2.79,0,0,0,.44-.62h1.22A2.89,2.89,0,0,1,120.42,168.63Z"/><path class="cls-4" d="M122.2,170.22h-1.48l.08-.1a.14.14,0,0,0,0-.19l-.32-.23a.14.14,0,0,0-.19,0l-.15.21a4.89,4.89,0,0,1-1.53,1.27l-.23.13a.14.14,0,0,0,0,.18l.2.35a.14.14,0,0,0,.18.05l.24-.14a1.28,1.28,0,0,0,.23-.13l1,1a4.94,4.94,0,0,1-1.62.43l-.25,0a.14.14,0,0,0-.12.15l0,.39a.14.14,0,0,0,.15.12l.26,0c1.31-.1,3.71-.81,3.71-3.09v-.28A.13.13,0,0,0,122.2,170.22Zm-1.43,2.07-1.06-1a5,5,0,0,0,.45-.39h1.49A2.18,2.18,0,0,1,120.77,172.29Z"/><path class="cls-4" d="M113.39,167.11h-6a.13.13,0,0,1-.13-.14h0a.53.53,0,0,1,.53-.53h6a.13.13,0,0,1,.13.14h0A.53.53,0,0,1,113.39,167.11Z"/><path class="cls-4" d="M118.05,166.58a.13.13,0,0,0-.13-.14h-2.65a.53.53,0,0,0-.53.53.14.14,0,0,0,.14.14h2.51a34.59,34.59,0,0,1-.3,5.88,1.79,1.79,0,0,1-1.22.11l-.27-.06a.15.15,0,0,0-.16.11l-.06.38a.13.13,0,0,0,.11.15,6.63,6.63,0,0,0,.94.11,1.63,1.63,0,0,0,1.18-.39c.35-.44.43-3.57.44-6.27Z"/><path class="cls-4" d="M104.9,175.07a.27.27,0,0,1-.45-.19v-6.12a2.32,2.32,0,0,1,2.18-2.31.13.13,0,0,1,.14.13v.06a.54.54,0,0,1-.4.52,1.65,1.65,0,0,0-1.26,1.6V174a3.91,3.91,0,0,1,1.48-.75.13.13,0,0,1,.15.12l.05.39a.13.13,0,0,1-.1.15,4.48,4.48,0,0,0-1.68,1Z"/><path class="cls-4" d="M122.53,173.59v-.4a.14.14,0,0,1,.13-.13,1.66,1.66,0,0,0,1.53-1.65v-4.3h-1.53a.13.13,0,0,1-.13-.14h0a.53.53,0,0,1,.53-.53h1.66a.13.13,0,0,1,.13.14v4.83a2.32,2.32,0,0,1-2.18,2.31A.12.12,0,0,1,122.53,173.59Z"/><path class="cls-4" d="M79.08,166.44h3.45v1.19h-2v1.55h1.63v1.17H80.48v2.83h-1.4Z"/><path class="cls-4" d="M86.16,168.29A2.11,2.11,0,0,1,87,169a2.52,2.52,0,0,1,.4,1,6.67,6.67,0,0,1,0,1H83.83a1.18,1.18,0,0,0,.52,1,1.29,1.29,0,0,0,.72.19,1,1,0,0,0,.72-.23,1.07,1.07,0,0,0,.27-.34h1.33a1.54,1.54,0,0,1-.48.9,2.41,2.41,0,0,1-1.88.73,2.56,2.56,0,0,1-1.75-.61,3.13,3.13,0,0,1-.08-4,2.43,2.43,0,0,1,1.79-.69A2.94,2.94,0,0,1,86.16,168.29Zm-2,1.13a1.35,1.35,0,0,0-.35.77h2.25a1.12,1.12,0,0,0-.35-.79,1.15,1.15,0,0,0-.77-.27A1,1,0,0,0,84.21,169.42Z"/><path class="cls-4" d="M90.77,168.27a1.76,1.76,0,0,1,.57.55v-2.38h1.32v6.74H91.39v-.69a1.84,1.84,0,0,1-.63.64,1.75,1.75,0,0,1-.89.21,1.86,1.86,0,0,1-1.47-.71,2.72,2.72,0,0,1-.6-1.82,3.1,3.1,0,0,1,.59-2,1.9,1.9,0,0,1,1.57-.74A1.68,1.68,0,0,1,90.77,168.27Zm.32,3.56a1.85,1.85,0,0,0,.28-1.07,1.63,1.63,0,0,0-.46-1.31,1,1,0,0,0-.66-.24.93.93,0,0,0-.84.43,2,2,0,0,0-.26,1.08,2,2,0,0,0,.27,1.1.9.9,0,0,0,.82.42A1,1,0,0,0,91.09,171.83Z"/><path class="cls-4" d="M94.77,168.19v3a1.53,1.53,0,0,0,.1.64.7.7,0,0,0,.7.38.92.92,0,0,0,.91-.54,2.07,2.07,0,0,0,.12-.77v-2.72h1.33v5H96.66v-.71l-.09.14a.7.7,0,0,1-.18.2,1.73,1.73,0,0,1-.59.38,1.93,1.93,0,0,1-.67.1,1.48,1.48,0,0,1-1.48-.8,2.91,2.91,0,0,1-.22-1.29v-3Z"/><path class="cls-4" d="M103,168.73a2.64,2.64,0,0,1,.61,1.89,3,3,0,0,1-.59,2,1.94,1.94,0,0,1-1.54.69,1.58,1.58,0,0,1-1-.3,1.87,1.87,0,0,1-.43-.48v2.6H98.78v-6.95H100v.74a1.91,1.91,0,0,1,.45-.51,1.63,1.63,0,0,1,1-.34A2,2,0,0,1,103,168.73Zm-1,.94a.92.92,0,0,0-.86-.45,1,1,0,0,0-1,.67,2.62,2.62,0,0,0-.13.91,1.43,1.43,0,0,0,.46,1.22,1.08,1.08,0,0,0,.66.21,1,1,0,0,0,.84-.42,2,2,0,0,0,.29-1.12A1.89,1.89,0,0,0,102,169.67Z"/><polygon class="cls-9" points="318.91 182.42 211.61 180 211.61 108.89 317.72 103.53 318.91 182.42"/><polygon class="cls-12" points="317.85 112.51 211.61 116.99 211.61 108.89 317.72 103.53 317.85 112.51"/><rect class="cls-4" x="218.74" y="122.39" width="8.88" height="1" transform="translate(-4.18 7.92) rotate(-2.01)"/><rect class="cls-4" x="218.75" y="125.52" width="13.36" height="1" transform="matrix(1, -0.03, 0.03, 1, -4.06, 7.55)"/><rect class="cls-4" x="218.75" y="136.69" width="87.39" height="1" transform="matrix(1, -0.02, 0.02, 1, -2.63, 5.15)"/><rect class="cls-4" x="218.76" y="142.54" width="87.45" height="1" transform="translate(-2.2 4.12) rotate(-0.9)"/><rect class="cls-4" x="218.77" y="148.4" width="87.52" height="1" transform="translate(-1.44 2.57) rotate(-0.56)"/><rect class="cls-4" x="218.78" y="154.26" width="87.6" height="1" transform="translate(-0.6 1.03) rotate(-0.22)"/><rect class="cls-4" x="262.12" y="116.8" width="1" height="87.67" transform="translate(101.33 422.86) rotate(-89.86)"/><path class="cls-4" d="M300.72,170.76a2.72,2.72,0,0,0-.11-.25s0,0,0-.07l.1-.12a0,0,0,0,1,.07,0,1.59,1.59,0,0,1,.15.35.07.07,0,0,1,0,.08l-.13.05S300.73,170.79,300.72,170.76Z"/><path class="cls-4" d="M301.55,170.77a1.36,1.36,0,0,0-.11-.25.09.09,0,0,1,0-.07l.1-.12a0,0,0,0,1,.07,0,2.48,2.48,0,0,1,.16.35.08.08,0,0,1,0,.08l-.13.05S301.56,170.8,301.55,170.77Z"/><path class="cls-4" d="M302.43,170.81l-.14,0a.05.05,0,0,1,0-.07,1.22,1.22,0,0,1,.15-.35s0,0,.06,0l.11.12a0,0,0,0,1,0,.07,1.43,1.43,0,0,0-.1.25S302.45,170.82,302.43,170.81Z"/><path class="cls-4" d="M302.69,171.42h0a.06.06,0,0,1-.05-.06v-.18l-2.08,0v.17s0,.06,0,.06h-.14a.06.06,0,0,1-.05-.06v-.23c0-.13.08-.23.18-.22l2.31,0a.06.06,0,0,1,.05.06v.23A.21.21,0,0,1,302.69,171.42Z"/><path class="cls-4" d="M302.74,172.79a3,3,0,0,1-.82-.21,1.24,1.24,0,0,0,.66-.94v-.11a.06.06,0,0,0-.05-.06l-1.67,0a.2.2,0,0,0-.18.22.06.06,0,0,0,.05.06l1.58,0a1.31,1.31,0,0,1-.7.69,1.63,1.63,0,0,1-.57-.54.05.05,0,0,0-.07,0l-.11.09a.06.06,0,0,0,0,.08,1.65,1.65,0,0,0,.47.51,4.21,4.21,0,0,1-.83.2,0,0,0,0,0,0,.06V173s0,.06.06,0a4,4,0,0,0,1.09-.3,3.25,3.25,0,0,0,1.11.34.06.06,0,0,0,0-.06v-.17A.07.07,0,0,0,302.74,172.79Z"/><path class="cls-4" d="M303,170.81l-.09-.13a.06.06,0,0,1,0-.08.74.74,0,0,0,.09-.12,1.57,1.57,0,0,0,.19-.37l0-.13.21.13-.05.13a2,2,0,0,1-.22.43l-.11.14A0,0,0,0,1,303,170.81Z"/><path class="cls-4" d="M303.29,172.32h-.18a0,0,0,0,1-.05-.05v-1.13a.2.2,0,0,1,.18-.22h.53a.06.06,0,0,1,.05.06v1.13a.2.2,0,0,1-.18.22h-.35m0-.29h.3v-.85h-.3Z"/><path class="cls-4" d="M305.58,170h-.95a.2.2,0,0,0-.18.22s0,.06,0,.06h.19a.71.71,0,0,1-.29.28l-.08.05a.08.08,0,0,0,0,.08l.06.15a.05.05,0,0,0,.07,0l.08-.05.13-.09.22.37a2.29,2.29,0,0,1-.45.31l-.08.05a.06.06,0,0,0,0,.07l.06.16s0,0,.06,0l.09,0a1.86,1.86,0,0,0,1.12-1.5v-.1S305.61,170,305.58,170Zm-.54.93-.24-.39a1.17,1.17,0,0,0,.16-.27h.42A1.18,1.18,0,0,1,305,170.94Z"/><path class="cls-4" d="M305.67,171.62h-.52l0-.05a.07.07,0,0,0,0-.08l-.11-.1a.05.05,0,0,0-.07,0l-.05.09a1.58,1.58,0,0,1-.53.53l-.08.06a0,0,0,0,0,0,.07l.07.15a0,0,0,0,0,.06,0l.09-.06.08-.06.36.42a1.5,1.5,0,0,1-.57.18h-.08a.06.06,0,0,0-.05.06l0,.17a0,0,0,0,0,0,.05h.09a1.3,1.3,0,0,0,1.29-1.3v-.12A.06.06,0,0,0,305.67,171.62Zm-.49.88-.38-.44.16-.16h.52A.93.93,0,0,1,305.18,172.5Z"/><path class="cls-4" d="M302.56,170.26l-2.08,0a0,0,0,0,1-.05,0h0a.21.21,0,0,1,.18-.23l2.09,0a0,0,0,0,1,0,.05h0A.21.21,0,0,1,302.56,170.26Z"/><path class="cls-4" d="M304.19,170.05a.06.06,0,0,0-.05-.06h-.92a.21.21,0,0,0-.19.23,0,0,0,0,0,.05,0H304a17.75,17.75,0,0,1-.07,2.51c0,.06-.23.09-.43,0l-.09,0s-.05,0-.06,0l0,.16a.07.07,0,0,0,0,.07,2.21,2.21,0,0,0,.33.05.47.47,0,0,0,.41-.16,12.18,12.18,0,0,0,.12-2.68Z"/><path class="cls-4" d="M299.64,173.61c-.06.06-.16,0-.16-.09l0-2.6a.89.89,0,0,1,.74-1,.06.06,0,0,1,.05.06v0a.2.2,0,0,1-.13.22.67.67,0,0,0-.43.68l0,2.23a1.32,1.32,0,0,1,.51-.31.05.05,0,0,1,0,.05l0,.17a0,0,0,0,1,0,.06,1.44,1.44,0,0,0-.58.43Z"/><path class="cls-4" d="M305.81,173.07v-.18a0,0,0,0,1,.05,0,.65.65,0,0,0,.53-.7l0-1.84h-.53a0,0,0,0,1-.05,0h0A.21.21,0,0,1,306,170h.59s0,0,0,.06l0,2.06a.9.9,0,0,1-.75,1A0,0,0,0,1,305.81,173.07Z"/><path class="cls-4" d="M290.68,169.84l1.18,0v.5h-.7V171h.56v.49h-.56v1.2h-.48Z"/><path class="cls-4" d="M293.12,170.65a.78.78,0,0,1,.3.32,1.15,1.15,0,0,1,.14.43,4.19,4.19,0,0,1,0,.42l-1.25,0a.56.56,0,0,0,.18.45.38.38,0,0,0,.25.08.31.31,0,0,0,.25-.09.38.38,0,0,0,.09-.14h.46a.78.78,0,0,1-.16.38.76.76,0,0,1-.64.3.8.8,0,0,1-.61-.27,1.23,1.23,0,0,1-.27-.84,1.28,1.28,0,0,1,.22-.84.73.73,0,0,1,.61-.28A.8.8,0,0,1,293.12,170.65Zm-.67.47a.61.61,0,0,0-.11.32h.77a.52.52,0,0,0-.12-.33.37.37,0,0,0-.27-.12A.33.33,0,0,0,292.45,171.12Z"/><path class="cls-4" d="M294.7,170.66a.59.59,0,0,1,.2.24v-1h.46l0,2.86h-.44v-.29a.75.75,0,0,1-.21.27.62.62,0,0,1-.31.08.65.65,0,0,1-.51-.31,1.4,1.4,0,0,1-.22-.77,1.45,1.45,0,0,1,.2-.84.6.6,0,0,1,.54-.31A.44.44,0,0,1,294.7,170.66Zm.13,1.5a.83.83,0,0,0,.1-.45.82.82,0,0,0-.17-.55.3.3,0,0,0-.23-.1.28.28,0,0,0-.29.18,1,1,0,0,0-.08.45.94.94,0,0,0,.1.47.31.31,0,0,0,.28.17A.28.28,0,0,0,294.83,172.16Z"/><path class="cls-4" d="M296.09,170.64v1.28a.85.85,0,0,0,0,.27.23.23,0,0,0,.24.16.31.31,0,0,0,.32-.22,1.34,1.34,0,0,0,0-.33l0-1.15h.46l0,2.11h-.44v-.29l0,.05a.28.28,0,0,1-.06.09.52.52,0,0,1-.2.15.56.56,0,0,1-.23,0,.5.5,0,0,1-.52-.34,1.56,1.56,0,0,1-.08-.55l0-1.27Z"/><path class="cls-4" d="M299,170.9a1.35,1.35,0,0,1,.22.81,1.44,1.44,0,0,1-.2.85.6.6,0,0,1-.53.29.49.49,0,0,1-.34-.13,1,1,0,0,1-.15-.21v1.1h-.45l0-3h.43V171a.78.78,0,0,1,.16-.22.52.52,0,0,1,.36-.14A.7.7,0,0,1,299,170.9Zm-.34.4a.33.33,0,0,0-.31-.19c-.16,0-.28.09-.34.28a1.38,1.38,0,0,0,0,.38.67.67,0,0,0,.17.52.32.32,0,0,0,.23.09.31.31,0,0,0,.29-.17,1,1,0,0,0,.09-.48A1,1,0,0,0,298.61,171.3Z"/><g class="cls-13"><path class="cls-14" d="M279,188.74c4.61-2.8,22.72-9.09,26.87-15.62s1.91-7.76-3.27-18.5-10.77-52.49.62-60.78,21.65-9.28,21.65-9.28V190.2Z"/></g><polygon class="cls-11" points="337.26 197.05 354.13 197 354.13 170.72 342.26 169.89 337.26 197.05"/><path class="cls-15" d="M55.23,187.23c-.12-2-.22-4-.2-6.08s.1-4.06.3-6.09.55-4,1-6,.89-4,1.44-5.91c-.45,2-.89,4-1.27,5.94s-.67,4-.87,6-.36,4-.39,6.06S55.2,185.2,55.23,187.23Z"/></g></g></svg>