<svg xmlns="http://www.w3.org/2000/svg" viewBox="0 0 400 240"><defs><style>.cls-1{fill:#fff;}.cls-2{fill:#f7a872;}.cls-3{fill:#333;}.cls-4{fill:#ef9456;}.cls-5{fill:#d88044;}.cls-6{fill:#f9f9f9;}</style></defs><title>Asset 4</title><g id="Layer_2" data-name="Layer 2"><g id="how-it-works"><rect class="cls-1" width="400" height="240"/><path class="cls-2" d="M109.24,137.55c6.84-25.49,2.4-45,7.82-53.38,3.48-5.35,17.3-22.74,25.62-24.48,19.35-4,20.93-1.29,27.78.05,16,3.13,11.3,10.32,11,13.47s-7.14,9.43-15,11.64c-1.22.34-10.28,4.92-11,6.31-1.34,2.58-.45,6.26.81,8.15s13.32,3.46,17.42-5,19.2-16.37,18.88-7.87S173.43,122.22,171,128.72c-3.42,9.21-17.49,28.82-26.3,36.06s-15.92,37.67-15.92,37.67L99.1,173.21Z"/><path class="cls-2" d="M208.23,118.52l5.41,11.77s-7.24,7.19-12.07,2.37A79.93,79.93,0,0,1,193,122.27Z"/><path class="cls-2" d="M186.72,126.42s-.37,10.2,1.87,12.81,9.49,1.67,9.49,1.67L200,131l-3.41-14.33-12.29.94Z"/><path class="cls-2" d="M188.77,130.79a84,84,0,0,1-8.94-2.55c-2-.93-4.06-4.66-4.06-4.66l10.93-3.16Z"/><path class="cls-3" d="M138.17,110.56l2.88-1,2.85-1.08,2.81-1.19c.91-.45,1.85-.84,2.73-1.33a35.46,35.46,0,0,0,5.19-3.14,15.67,15.67,0,0,0,4.27-4.28,13.94,13.94,0,0,1-4,4.58,32.28,32.28,0,0,1-5.2,3.28c-.9.49-1.85.87-2.78,1.31s-1.89.78-2.85,1.12-1.94.66-2.91,1Z"/><path class="cls-3" d="M136.1,86.24a19.31,19.31,0,0,1,4.67,2,34.27,34.27,0,0,1,4.14,3,45,45,0,0,1,3.64,3.54,35.41,35.41,0,0,1,3.15,4c-1.1-1.28-2.25-2.51-3.43-3.7s-2.4-2.36-3.69-3.43a40.81,40.81,0,0,0-4-3A27.3,27.3,0,0,0,136.1,86.24Z"/><path class="cls-4" d="M145.05,70s-.51,8.21-.07,10.52c1.94,10.22,9,22.47,9,22.47Z"/><path class="cls-3" d="M207.59,121.51a5.66,5.66,0,0,0,.44,2.36c.25.76.56,1.52.85,2.27l1.81,4.54-.3-.12c.72-.2,1.45-.38,2.2-.53-.67.35-1.35.68-2,1l-.19.08-.12-.2a29.13,29.13,0,0,1-2.05-4.51,17.62,17.62,0,0,1-.67-2.39A4.39,4.39,0,0,1,207.59,121.51Z"/><path class="cls-4" d="M199.1,132.8,200,131s-5.77-6-7-8.75C193.76,127.19,199.1,132.8,199.1,132.8Z"/><polygon class="cls-4" points="184.92 129.82 186.74 130.29 186.72 126.42 185.83 124.04 184.92 129.82"/><path class="cls-3" d="M197.45,140.1c-1,.13-2,.21-3.07.27h-.28v-.3a21.29,21.29,0,0,1,.75-5.43,9.62,9.62,0,0,1,1.1-2.56,3.44,3.44,0,0,1,1-1,1.69,1.69,0,0,1,1.35-.27,2.3,2.3,0,0,0-1.89,1.55,12.48,12.48,0,0,0-.85,2.5,48.72,48.72,0,0,0-.9,5.27l-.27-.28C195.4,139.88,196.42,140,197.45,140.1Z"/><path class="cls-4" d="M154,103s-5.8,4.16-10.18,5.66a20.81,20.81,0,0,1-7.73,1.23s15.83-10.29,16.57-12.4A34.86,34.86,0,0,1,154,103Z"/><path class="cls-5" d="M174.88,112.7a55.42,55.42,0,0,0,4.61-6.35,56.36,56.36,0,0,0,2.38-6c.23-1.31,2.18-5.84,1.63-10.77-.2-1.79-1.2-7.63-1.2-7.63Z"/><path class="cls-6" d="M142.58,56.63c3.44,15.94,14.08,54.77,17.9,68.58a5.31,5.31,0,0,0,6.39,3.74l143.2-35.33A5.31,5.31,0,0,0,314,87.15L297.8,23.34a5.3,5.3,0,0,0-6.26-3.89L146.67,50.32A5.32,5.32,0,0,0,142.58,56.63Z"/><path class="cls-3" d="M160.48,125.21a5.31,5.31,0,0,0,6.39,3.74l143.2-35.33A5.31,5.31,0,0,0,314,87.15"/><path class="cls-3" d="M299.64,30.59l-1.84-7.25a5.3,5.3,0,0,0-6.26-3.89L146.67,50.32a5.32,5.32,0,0,0-4.09,6.31c.53,2.45,1.23,5.44,2,8.8"/><path class="cls-1" d="M151.53,53.37l.37-.07.39-.06.37,0a1,1,0,0,1,.31,0,1.41,1.41,0,0,1,.54.34,1.27,1.27,0,0,1,.33.63,1.35,1.35,0,0,1-.05.78,1.24,1.24,0,0,1-.48.59h0a1.26,1.26,0,0,1,.85.28,1.38,1.38,0,0,1,.44.78,1.67,1.67,0,0,1,0,.59,1.37,1.37,0,0,1-.21.55,1.53,1.53,0,0,1-.43.45,1.65,1.65,0,0,1-.66.28l-2.57.56-1.15-5.31Zm.68,2.24a1.34,1.34,0,0,0,.82-.4.77.77,0,0,0,.13-.69.91.91,0,0,0-.18-.42.64.64,0,0,0-.3-.2,1,1,0,0,0-.39,0,2.36,2.36,0,0,0-.44.07l-1.41.3.36,1.69ZM153.1,58a1,1,0,0,0,.67-.41,1,1,0,0,0,.12-.76.92.92,0,0,0-.19-.41.87.87,0,0,0-.32-.22,1.25,1.25,0,0,0-.4-.06,3.49,3.49,0,0,0-.44,0l-1.61.35.4,1.84Z"/><path class="cls-1" d="M154.9,54.33a2.71,2.71,0,0,1,.29-1,2.39,2.39,0,0,1,.66-.79,2.51,2.51,0,0,1,1.06-.47,2.4,2.4,0,0,1,1.16,0,2.35,2.35,0,0,1,.93.44,2.58,2.58,0,0,1,.67.79,3.42,3.42,0,0,1,.39,1,3.57,3.57,0,0,1,.06,1.08,2.63,2.63,0,0,1-.29,1,2.22,2.22,0,0,1-.66.78,2.58,2.58,0,0,1-1.06.47,2.63,2.63,0,0,1-1.15,0,2.35,2.35,0,0,1-.93-.44,2.67,2.67,0,0,1-.67-.78,3.58,3.58,0,0,1-.46-2.09ZM156,56a2.19,2.19,0,0,0,.48.63,1.64,1.64,0,0,0,.68.38,1.73,1.73,0,0,0,.88,0,1.76,1.76,0,0,0,.79-.37,1.73,1.73,0,0,0,.46-.62,2.23,2.23,0,0,0,.18-.78,3.17,3.17,0,0,0-.07-.81,3.09,3.09,0,0,0-.28-.77,1.89,1.89,0,0,0-.48-.63,1.67,1.67,0,0,0-1.55-.39,1.71,1.71,0,0,0-.79.37,1.8,1.8,0,0,0-.47.63,2.17,2.17,0,0,0-.17.77,3.13,3.13,0,0,0,.07.81A2.93,2.93,0,0,0,156,56Z"/><path class="cls-1" d="M162.57,51l3.22,4.85L165,56l-.93-1.47-2.24.49-.25,1.72-.72.16.92-5.76Zm1.16,3-1.42-2.28h0l-.37,2.67Z"/><path class="cls-1" d="M167.66,49.88a1.75,1.75,0,0,1,1.26.12,1.28,1.28,0,0,1,.65.92,1.7,1.7,0,0,1,0,.9,1.22,1.22,0,0,1-.6.65h0a1,1,0,0,1,.41.07.84.84,0,0,1,.29.2,1.1,1.1,0,0,1,.19.3l.15.35c0,.13.07.26.1.39s.08.26.13.39a2.21,2.21,0,0,0,.16.35.78.78,0,0,0,.24.27l-.79.17a.46.46,0,0,1-.15-.2,1.89,1.89,0,0,1-.1-.31c0-.11-.07-.24-.1-.37a3,3,0,0,0-.13-.39l-.15-.35a1,1,0,0,0-.21-.27.61.61,0,0,0-.3-.15.9.9,0,0,0-.43,0l-1.73.37.49,2.27-.7.15-1.15-5.31Zm.67,2.38a1.31,1.31,0,0,0,.36-.23.87.87,0,0,0,.2-.35,1,1,0,0,0,0-.49,1,1,0,0,0-.37-.61,1,1,0,0,0-.77-.1l-1.76.38.41,1.86,1.47-.32A3.5,3.5,0,0,0,168.33,52.26Z"/><path class="cls-1" d="M172.07,48.93a2.71,2.71,0,0,1,2,.21,2.58,2.58,0,0,1,1.07,1.76,4.46,4.46,0,0,1,.11,1.22,2.34,2.34,0,0,1-.28,1,2,2,0,0,1-.67.71,3.3,3.3,0,0,1-1.11.43l-1.82.4-1.15-5.31Zm1.08,4.7.3-.09a1.44,1.44,0,0,0,.36-.17,1.54,1.54,0,0,0,.35-.29,1.37,1.37,0,0,0,.27-.44,2.17,2.17,0,0,0,.14-.63,3.07,3.07,0,0,0-.09-.86,3.52,3.52,0,0,0-.27-.83,1.63,1.63,0,0,0-.45-.57,1.4,1.4,0,0,0-.63-.29,2.31,2.31,0,0,0-.85,0l-1.19.25.89,4.12Z"/><path class="cls-1" d="M176.22,48l1.15,5.31-.71.15-1.15-5.31Z"/><path class="cls-1" d="M178.15,47.61l3.73,3.7h0L181,47l.67-.14,1.15,5.31-.77.16-3.7-3.66h0l.92,4.26-.67.14-1.15-5.31Z"/><path class="cls-1" d="M187.11,51.16a2.59,2.59,0,0,1-2,.4,2.54,2.54,0,0,1-.93-.42,2.73,2.73,0,0,1-.68-.75,3.29,3.29,0,0,1-.39-1,3.94,3.94,0,0,1-.08-1.13,2.75,2.75,0,0,1,.28-1,2.28,2.28,0,0,1,.65-.8A2.41,2.41,0,0,1,185,46a3.37,3.37,0,0,1,.83-.07,1.87,1.87,0,0,1,.75.17,1.91,1.91,0,0,1,.63.43,2.32,2.32,0,0,1,.45.74l-.71.15a1.63,1.63,0,0,0-.3-.48,1.33,1.33,0,0,0-.43-.28,1.46,1.46,0,0,0-.52-.11,1.93,1.93,0,0,0-.58.05,1.67,1.67,0,0,0-1.24,1,2.27,2.27,0,0,0-.16.79,3,3,0,0,0,.07.85,2.92,2.92,0,0,0,.29.78,2.11,2.11,0,0,0,.5.6,1.64,1.64,0,0,0,.67.34,1.74,1.74,0,0,0,.82,0,2.08,2.08,0,0,0,.71-.29,1.78,1.78,0,0,0,.46-.49,1.63,1.63,0,0,0,.21-.62,1.86,1.86,0,0,0-.05-.7l-1.7.37-.13-.6,2.33-.5.61,2.79-.45.1-.33-.62A1.77,1.77,0,0,1,187.11,51.16Z"/><path class="cls-1" d="M192.81,44.44a1.66,1.66,0,0,1,1.31.15,1.87,1.87,0,0,1,.5,2.31,1.65,1.65,0,0,1-1.13.67l-1.62.36.47,2.17-.71.15-1.15-5.31Zm.31,2.59a1.26,1.26,0,0,0,.83-.43,1.13,1.13,0,0,0-.31-1.46,1.42,1.42,0,0,0-.94-.06l-1.38.3.42,1.95Z"/><path class="cls-1" d="M197,43.54l3.23,4.86-.78.16-.93-1.47-2.25.49L196,49.31l-.73.15.92-5.75Zm1.17,3-1.42-2.29h0l-.36,2.68Z"/><path class="cls-1" d="M202.38,43.13a1.53,1.53,0,0,0-1-.07,3.09,3.09,0,0,0-.43.14,1.45,1.45,0,0,0-.35.24.79.79,0,0,0-.2.33.88.88,0,0,0,0,.46.59.59,0,0,0,.23.37,1.15,1.15,0,0,0,.44.16,3.52,3.52,0,0,0,.58,0h.65a4.87,4.87,0,0,1,.66,0,2,2,0,0,1,.61.15,1.35,1.35,0,0,1,.48.35,1.32,1.32,0,0,1,.28.62,1.38,1.38,0,0,1,0,.76,1.58,1.58,0,0,1-.38.6,2.07,2.07,0,0,1-.61.42,3.13,3.13,0,0,1-.71.24,2.9,2.9,0,0,1-.87.07,1.94,1.94,0,0,1-.77-.18,1.72,1.72,0,0,1-.6-.48,1.9,1.9,0,0,1-.36-.8l.67-.14A1.34,1.34,0,0,0,201,47a1.13,1.13,0,0,0,.43.32,1.53,1.53,0,0,0,.54.12,2.32,2.32,0,0,0,.59-.05,2,2,0,0,0,.47-.15,1.38,1.38,0,0,0,.41-.24,1,1,0,0,0,.25-.36,1,1,0,0,0,0-.51.68.68,0,0,0-.24-.41,1.16,1.16,0,0,0-.45-.2,3.39,3.39,0,0,0-.58-.05h-.65l-.66,0a2,2,0,0,1-.6-.12A1.25,1.25,0,0,1,200,45a1.26,1.26,0,0,1-.28-.58,1.41,1.41,0,0,1,.35-1.3,1.91,1.91,0,0,1,.55-.42,3.35,3.35,0,0,1,.69-.25,2.67,2.67,0,0,1,.78-.06,1.66,1.66,0,0,1,.68.17,1.46,1.46,0,0,1,.53.43,1.84,1.84,0,0,1,.33.72l-.67.14A1.12,1.12,0,0,0,202.38,43.13Z"/><path class="cls-1" d="M207.2,42.08a1.53,1.53,0,0,0-1-.06,2.16,2.16,0,0,0-.43.14,1.25,1.25,0,0,0-.35.23.81.81,0,0,0-.21.34.89.89,0,0,0,0,.46.53.53,0,0,0,.23.36,1.1,1.1,0,0,0,.44.17,3.45,3.45,0,0,0,.58,0h.65l.66,0a2.3,2.3,0,0,1,.6.16,1.17,1.17,0,0,1,.48.34,1.37,1.37,0,0,1,.29.63,1.38,1.38,0,0,1,0,.76,1.71,1.71,0,0,1-.38.6,2.21,2.21,0,0,1-.61.42,3.13,3.13,0,0,1-.71.24,2.9,2.9,0,0,1-.87.07,2.12,2.12,0,0,1-.77-.18,1.56,1.56,0,0,1-.6-.48,1.9,1.9,0,0,1-.36-.8l.67-.14a1.23,1.23,0,0,0,.25.54,1.34,1.34,0,0,0,.43.33,1.64,1.64,0,0,0,.55.12,2.39,2.39,0,0,0,.59,0,3.68,3.68,0,0,0,.47-.15,1.24,1.24,0,0,0,.4-.25.81.81,0,0,0,.25-.36.92.92,0,0,0,0-.5.68.68,0,0,0-.24-.41,1,1,0,0,0-.45-.2,2.67,2.67,0,0,0-.58-.05h-.65c-.23,0-.44,0-.66,0a2.2,2.2,0,0,1-.6-.12,1.16,1.16,0,0,1-.47-.32,1.22,1.22,0,0,1-.28-.57,1.38,1.38,0,0,1,0-.73,1.35,1.35,0,0,1,.33-.58,1.93,1.93,0,0,1,.55-.41,2.85,2.85,0,0,1,.69-.25,3,3,0,0,1,.78-.07,1.71,1.71,0,0,1,.68.18,1.46,1.46,0,0,1,.53.43,1.84,1.84,0,0,1,.33.72l-.67.14A1.14,1.14,0,0,0,207.2,42.08Z"/><path class="cls-3" d="M159.67,74.24a.5.5,0,0,1-.11-1L260.85,50.31a.49.49,0,0,1,.59.38.48.48,0,0,1-.37.59l-101.29,23Z"/><path class="cls-3" d="M164.25,88.46a.5.5,0,0,1-.11-1L264.28,64.79a.5.5,0,0,1,.22,1L164.36,88.45Z"/><path class="cls-3" d="M168.13,104a.5.5,0,0,1-.48-.39.49.49,0,0,1,.37-.6l100.8-23.43a.5.5,0,0,1,.22,1L168.25,104Z"/><polygon class="cls-3" points="283.65 40.29 283.34 39.12 295.2 36.39 295.51 37.56 283.65 40.29"/><polygon class="cls-3" points="284.17 42.26 283.96 41.45 295.82 38.72 296.03 39.53 284.17 42.26"/><polygon class="cls-3" points="284.7 44.23 284.48 43.41 296.34 40.69 296.55 41.5 284.7 44.23"/><polygon class="cls-3" points="285.36 46.73 284.83 44.72 296.68 41.99 297.22 44 285.36 46.73"/><polygon class="cls-3" points="285.89 48.72 285.7 48.01 297.56 45.28 297.75 46 285.89 48.72"/><polygon class="cls-3" points="286.24 49.8 286.05 49.08 297.9 46.35 298.1 47.07 286.24 49.8"/><polygon class="cls-3" points="286.53 50.88 286.34 50.17 298.19 47.44 298.38 48.16 286.53 50.88"/><polygon class="cls-3" points="291.72 70.72 291.51 69.91 303.36 67.18 303.58 68 291.72 70.72"/><polygon class="cls-3" points="292.24 72.69 292.03 71.88 303.89 69.15 304.1 69.97 292.24 72.69"/><polygon class="cls-3" points="292.91 75.19 292.37 73.18 304.23 70.45 304.76 72.47 292.91 75.19"/><polygon class="cls-3" points="293.44 77.19 293.25 76.47 305.11 73.75 305.29 74.46 293.44 77.19"/><polygon class="cls-3" points="293.79 78.26 293.6 77.55 305.45 74.82 305.64 75.53 293.79 78.26"/><polygon class="cls-3" points="294.07 79.35 293.88 78.63 305.74 75.91 305.93 76.62 294.07 79.35"/><polygon class="cls-3" points="287.01 52.73 286.63 51.26 298.48 48.53 298.87 50 287.01 52.73"/><polygon class="cls-3" points="287.41 54.21 287.11 53.1 298.97 50.37 299.26 51.48 287.41 54.21"/><polygon class="cls-3" points="288.22 57.27 287.56 54.78 299.42 52.06 300.08 54.54 288.22 57.27"/><polygon class="cls-3" points="288.73 59.21 288.4 57.97 300.26 55.24 300.59 56.48 288.73 59.21"/><polygon class="cls-3" points="289.09 60.55 288.9 59.84 300.76 57.11 300.95 57.83 289.09 60.55"/><polygon class="cls-3" points="289.52 62.28 289.19 60.93 301.05 58.2 301.44 59.67 289.52 62.28"/><polygon class="cls-3" points="289.97 63.88 289.68 62.77 301.54 60.04 301.83 61.15 289.97 63.88"/><polygon class="cls-3" points="290.78 66.94 290.12 64.45 301.98 61.73 302.64 64.21 290.78 66.94"/><polygon class="cls-3" points="291.3 68.88 290.97 67.64 302.82 64.91 303.15 66.15 291.3 68.88"/><path class="cls-2" d="M150.8,105.31c9.87-5.89,11-11.8,14.06-18.17,4.09-8.5,15.32-14.81,17.82-6.68,1.78,5.82-3.42,30-13.19,41.72-1.11,1.33-6.5,10.06-10.31,14.31"/><path class="cls-4" d="M139.71,171.41c2.52-4.78,4.91-6,10.29-11.73,2.87-3.07,7.71-9.46,12.54-16,9.82-13.26,12.37-29.76,14.69-35.21a62.32,62.32,0,0,0,4.64-15.42s-58.11,85-59.28,84.69,10.88,8.47,10.88,8.47S137.81,175,139.71,171.41Z"/><path class="cls-3" d="M181.42,82.91A4.59,4.59,0,0,0,181.1,81a2.85,2.85,0,0,0-1.28-1.29c-.28-.16-.57-.3-.86-.43a1.65,1.65,0,0,0-.4-.16,1.39,1.39,0,0,0-.41,0,5.33,5.33,0,0,0-1.74.55,18.61,18.61,0,0,0-3.23,2.1,20,20,0,0,0-2.82,2.6l-.08-.5q2.13,1.35,4.21,2.78c1.39.93,2.77,1.9,4.13,2.89-1.48-.81-2.94-1.63-4.39-2.49s-2.89-1.71-4.31-2.61l-.33-.2.24-.3a18.43,18.43,0,0,1,2.9-2.76,18.78,18.78,0,0,1,3.4-2.11,5.11,5.11,0,0,1,2-.53,1.83,1.83,0,0,1,.56.07,2.13,2.13,0,0,1,.5.23c.29.16.58.33.86.52a2.94,2.94,0,0,1,1.29,1.57A4.33,4.33,0,0,1,181.42,82.91Z"/><path class="cls-1" d="M128.59,220.67l16.24-31.43S145,159.91,101.78,160L73.65,210.09"/><path class="cls-3" d="M128.59,220.67l8-15.77,8.07-15.74,0,.08a24.76,24.76,0,0,0-1.37-7,28.38,28.38,0,0,0-3.16-6.42,29.89,29.89,0,0,0-10.51-9.57,45.16,45.16,0,0,0-13.5-4.75,77.36,77.36,0,0,0-14.33-1.26l.2-.12-14.13,25q-7,12.52-14.2,25Q80.57,197.51,87.57,185l14-25.08.07-.12h.14A75.06,75.06,0,0,1,116.2,161a45.66,45.66,0,0,1,13.63,4.84,30.43,30.43,0,0,1,10.63,9.73,28.37,28.37,0,0,1,3.19,6.52,25.44,25.44,0,0,1,1.37,7.14v0l0,0L136.83,205Z"/><path class="cls-1" d="M89.52,189.24s9.32-.73,19.72,5.79S127,212.94,127,212.94"/><path class="cls-3" d="M89.52,189.24a31.6,31.6,0,0,1,11.4,1.65,39.4,39.4,0,0,1,10.35,5.19,57.51,57.51,0,0,1,8.63,7.71,66.46,66.46,0,0,1,7.07,9.15c-1.1-1.59-2.29-3.1-3.52-4.58s-2.49-2.93-3.83-4.3a59.18,59.18,0,0,0-8.64-7.57,40.25,40.25,0,0,0-10.18-5.24,36.58,36.58,0,0,0-5.55-1.47A28.24,28.24,0,0,0,89.52,189.24Z"/><path class="cls-1" d="M138.1,188.66c-2.2,1.52-2.45,3.81-.92,4.54,1.69.8,4.35-1.59,4.42-3.2C141.66,188.6,139.33,187.81,138.1,188.66Z"/><path class="cls-3" d="M138.1,188.66a5.12,5.12,0,0,0-1.37,1.45,2.59,2.59,0,0,0-.36,1.87,1.49,1.49,0,0,0,1.27,1.13,2.65,2.65,0,0,0,1.75-.49,4.92,4.92,0,0,0,1.42-1.27,2.28,2.28,0,0,0,.62-1.71,1.93,1.93,0,0,0-1.39-1.21A2.49,2.49,0,0,0,138.1,188.66Zm0,0a2.49,2.49,0,0,1,2-.3,2.1,2.1,0,0,1,1.61,1.21,2.46,2.46,0,0,1-.51,2,5.22,5.22,0,0,1-1.51,1.45,3.08,3.08,0,0,1-2.08.48,1.81,1.81,0,0,1-1.44-1.5,2.76,2.76,0,0,1,.54-2A4.93,4.93,0,0,1,138.1,188.66Z"/><path class="cls-1" d="M131.77,197.75c-2.2,1.52-2.45,3.81-.92,4.54,1.69.8,4.35-1.59,4.42-3.2C135.33,197.69,133,196.9,131.77,197.75Z"/><path class="cls-3" d="M131.77,197.75a5.12,5.12,0,0,0-1.37,1.45,2.61,2.61,0,0,0-.36,1.87,1.51,1.51,0,0,0,1.27,1.14,2.65,2.65,0,0,0,1.75-.5,4.92,4.92,0,0,0,1.42-1.27,2.18,2.18,0,0,0,.62-1.7,1.91,1.91,0,0,0-1.39-1.21A2.44,2.44,0,0,0,131.77,197.75Zm0,0a2.53,2.53,0,0,1,2-.3,2.12,2.12,0,0,1,1.61,1.22,2.44,2.44,0,0,1-.51,2,5.22,5.22,0,0,1-1.51,1.45,3.14,3.14,0,0,1-2.08.49,1.82,1.82,0,0,1-1.44-1.51,2.82,2.82,0,0,1,.54-2A4.93,4.93,0,0,1,131.77,197.75Z"/><path class="cls-3" d="M104.26,155.06l2.59-9.09c.86-3,1.67-6.07,2.46-9.11s1.46-6.12,2-9.22,1-6.21,1.41-9.34a128.79,128.79,0,0,1-3.19,18.61C108.77,140,107.9,143,107,146S105.23,152.06,104.26,155.06Z"/></g></g></svg>