<svg xmlns="http://www.w3.org/2000/svg" viewBox="0 0 683.79 129.68"><defs><style>.cls-1{fill:#202020;}</style></defs><title>Asset 7</title><g id="Layer_2" data-name="Layer 2"><g id="Layer_1-2" data-name="Layer 1"><path class="cls-1" d="M432.62,28.41a42.63,42.63,0,0,0-4.56-8.89A1.94,1.94,0,0,1,428.3,17l4.3-4.14a2,2,0,0,1,2.87.13,49.51,49.51,0,0,1,6.47,12.18,2,2,0,0,1-1.23,2.57l-5.62,1.87A2,2,0,0,1,432.62,28.41Z"/><path class="cls-1" d="M468.16,28.41a42.63,42.63,0,0,0-4.56-8.89,1.94,1.94,0,0,1,.24-2.55l4.3-4.14A2,2,0,0,1,471,13a49.51,49.51,0,0,1,6.47,12.18,2,2,0,0,1-1.22,2.57l-5.63,1.87A2,2,0,0,1,468.16,28.41Z"/><path class="cls-1" d="M505.48,29.43l-5.74-1.55a2,2,0,0,1-1.36-2.53,43.79,43.79,0,0,1,6.52-12.29,2,2,0,0,1,2.86-.19l4.4,4a2,2,0,0,1,.18,2.69,34.31,34.31,0,0,0-4.5,8.64A2,2,0,0,1,505.48,29.43Z"/><path class="cls-1" d="M516.43,50.35h0a2,2,0,0,1-2-2V42.26H425.61v6.12a2,2,0,0,1-2,2h-5.92a2,2,0,0,1-2-2v-8.1a7.9,7.9,0,0,1,7.89-7.9h98.73a2,2,0,0,1,2,2v8.09A7.9,7.9,0,0,1,516.43,50.35Z"/><path class="cls-1" d="M517.79,98.58a171.13,171.13,0,0,1-34.89-7c27.74-14.63,28.68-32.07,28.71-33.18V54.3a2,2,0,0,0-2-2H438.44a7.9,7.9,0,0,0-7.89,7.9,2,2,0,0,0,2,2H500c-2.75,5.91-10.18,15.89-30,24.34C460.38,82.1,451.48,76.13,445.63,68a2,2,0,0,0-2.66-.54l-5,3.23a2,2,0,0,0-.57,2.81c5.16,7.27,12.19,13,20,17.63A215.89,215.89,0,0,1,422,98.51a2,2,0,0,0-1.73,2.19l.74,5.88a2,2,0,0,0,2.24,1.72c19.59-2.57,34.8-6.47,46.66-11,19.81,8.24,40.64,10.57,47.17,11.11a2,2,0,0,0,2.12-1.86l.34-5.92A2,2,0,0,0,517.79,98.58Z"/><path class="cls-1" d="M531.74,28.87l-4-4.36a2,2,0,0,1,.09-2.77s3.41-3.33,4.09-4.16c1.76-2.15,4.19-5,8.2-13.12L542.29,0l8.84,4.4-2.19,4.42c-4.83,9.71-8.41,13.71-9.49,15.05A45.68,45.68,0,0,1,534.54,29,2.05,2.05,0,0,1,531.74,28.87Z"/><path class="cls-1" d="M541.56,81.55h-7.9a2,2,0,0,1-2-2V40.28a7.9,7.9,0,0,1,7.9-7.9h22.7a2,2,0,0,1,2,2V73.65a7.9,7.9,0,0,1-7.9,7.9H541.56m0-9.87h12.83V42.26H541.56Z"/><path class="cls-1" d="M639.91,0h-40.3a7.9,7.9,0,0,0-7.9,7.9,2,2,0,0,0,2,2h8.05a35.61,35.61,0,0,1-12.64,10l-3.39,1.7a2,2,0,0,0-.89,2.64l2.63,5.31a2,2,0,0,0,2.65.89l3.44-1.72a52.26,52.26,0,0,0,5.56-3.22l9.47,13.08a134.27,134.27,0,0,1-19.28,10.88l-3.49,1.62a2,2,0,0,0-1,2.62l2.48,5.38a2,2,0,0,0,2.62,1l3.6-1.66c18.4-8.51,48.36-25.73,48.36-52.76V2A2,2,0,0,0,639.91,0ZM616.4,32.55l-9.69-13.37a39,39,0,0,0,6.71-9.31h18.1C629.76,18.62,623.68,26.26,616.4,32.55Z"/><path class="cls-1" d="M642.87,56.27h-22l1.09-1.52a2,2,0,0,0-.45-2.76l-4.78-3.4a2,2,0,0,0-2.78.5l-2.19,3.22c-8,11.16-22.62,18.75-22.78,18.84l-3.44,2a2,2,0,0,0-.74,2.67L587.69,81a2,2,0,0,0,2.69.76l3.63-2c.2-.11,1.49-.82,3.42-2l15.21,14.56a79.1,79.1,0,0,1-24.17,6.39l-3.68.31A2,2,0,0,0,583,101.1l.47,5.9a2,2,0,0,0,2.13,1.81l3.95-.32c19.48-1.53,55.32-12.09,55.32-46V58.25A2,2,0,0,0,642.87,56.27ZM621.5,87.1,605.68,72a83.92,83.92,0,0,0,6.77-5.83h22.17C633.24,75.59,628,82.31,621.5,87.1Z"/><path class="cls-1" d="M511.5,9.87H422.65a2,2,0,0,1-2-2h0a7.9,7.9,0,0,1,7.9-7.9h88.85a2,2,0,0,1,2,2h0A7.9,7.9,0,0,1,511.5,9.87Z"/><path class="cls-1" d="M581.05,2a2,2,0,0,0-2-2H539.59a7.9,7.9,0,0,0-7.9,7.9,2,2,0,0,0,2,2h37.5c-.19,46.44-2.11,83.1-4.53,87.78-1.57,2-9.78,3-18.13,1.56l-4-.83a2,2,0,0,0-2.34,1.6l-1,5.66a2,2,0,0,0,1.64,2.29c3.58.57,11.09,1.7,14.12,1.59,6.06-.23,13.88-1.18,17.49-5.77,5.18-6.61,6.49-53.23,6.64-93.58Z"/><path class="cls-1" d="M384.9,128.57a4,4,0,0,1-6.68-2.85V34.55A34.59,34.59,0,0,1,410.71.06a2,2,0,0,1,2.06,2V3a7.85,7.85,0,0,1-5.94,7.63,24.71,24.71,0,0,0-18.74,23.95v78.34c5.84-4.34,14-9.42,22-11.09a2,2,0,0,1,2.3,1.7l.79,5.89a2,2,0,0,1-1.58,2.18c-9.65,2.24-21.18,11.71-25,15.4Z"/><path class="cls-1" d="M649.24,106.54V100.6a2,2,0,0,1,1.88-1.95A24.7,24.7,0,0,0,673.92,74V9.87H651.21a2,2,0,0,1-2-2h0a7.9,7.9,0,0,1,7.9-7.9h24.68a2,2,0,0,1,2,2V74a34.6,34.6,0,0,1-32.49,34.5A2,2,0,0,1,649.24,106.54Z"/><path class="cls-1" d="M0,0H51.36V17.67H20.87V40.79H45.08V58.26H20.87v42.16H0Z"/><path class="cls-1" d="M105.51,27.57a30.31,30.31,0,0,1,12.85,11,36.74,36.74,0,0,1,5.92,15.38,94.82,94.82,0,0,1,.64,14.75H70.76q.46,11.19,7.78,15.69a19.7,19.7,0,0,0,10.72,2.8q6.64,0,10.79-3.41a16.26,16.26,0,0,0,4-5.11h19.86q-.8,6.6-7.21,13.43-10,10.84-28,10.85c-9.89,0-19.3-2.88-26.19-9.15-6.28-5.72-11.34-16-11.34-29.77q0-19.32,10.24-29.63T88,24.08A42.25,42.25,0,0,1,105.51,27.57ZM76.42,44.36q-4.12,4.24-5.18,11.51h33.5q-.54-7.74-5.18-11.75a17,17,0,0,0-11.53-4C83,40.11,79.17,41.53,76.42,44.36Z"/><path class="cls-1" d="M174.18,27.25a23.72,23.72,0,0,1,8.53,8.22V0h19.71V100.42H183.53V90.12a27.59,27.59,0,0,1-9.48,9.61,26.65,26.65,0,0,1-13.24,3q-13,0-21.93-10.53t-8.91-27q0-19,8.77-29.95t23.43-10.92A24,24,0,0,1,174.18,27.25Zm4.78,53q4.29-6.14,4.3-15.89,0-13.65-6.9-19.51a14.79,14.79,0,0,0-9.82-3.55q-8.52,0-12.52,6.45t-4,16q0,10.31,4.06,16.48t12.31,6.17Q174.65,86.36,179,80.22Z"/><path class="cls-1" d="M233.88,26.06V70.88q0,6.34,1.49,9.55c1.76,3.77,5.23,5.66,10.38,5.66q9.92,0,13.58-8,1.91-4.37,1.9-11.53V26.06h19.71v74.36H262.05V89.91c-.18.23-.64.91-1.36,2a14.06,14.06,0,0,1-2.59,3,26.87,26.87,0,0,1-8.8,5.59,30,30,0,0,1-10,1.5q-16.46,0-22.17-11.87Q214,83.64,214,70.88V26.06Z"/><path class="cls-1" d="M356.79,34q9.09,9.62,9.09,28.24,0,19.65-8.89,30t-22.9,10.3q-8.93,0-14.83-4.43a28.94,28.94,0,0,1-6.32-7.17v38.75H293.71V26.06h18.62V37a31.46,31.46,0,0,1,6.73-7.64,24.82,24.82,0,0,1,15.51-5A29.43,29.43,0,0,1,356.79,34ZM341.86,48q-4-6.62-12.85-6.61-10.68,0-14.68,10a37.7,37.7,0,0,0-2.07,13.51q0,13,7,18.22A16,16,0,0,0,329,86.23q8.19,0,12.51-6.28t4.31-16.71A29.1,29.1,0,0,0,341.86,48Z"/></g></g></svg>