<svg xmlns="http://www.w3.org/2000/svg" viewBox="0 0 288.17 610.3"><defs><style>.cls-1{fill:#f4f4f4;}.cls-2{fill:#f7a872;}.cls-3{fill:#ea9963;}.cls-4{fill:#2d2d2d;}.cls-5{fill:#7f7f7f;}.cls-6{fill:#d88248;}.cls-7{fill:#f9f9f9;}.cls-8{fill:#333;}.cls-9{fill:#ddd;}.cls-10{fill:#1c1b23;}.cls-11{fill:#fff;}.cls-12{fill:#ccc;}.cls-13{fill:#3f3f3f;}.cls-14{fill:#ededed;}</style></defs><title>Asset 8</title><g id="Layer_2" data-name="Layer 2"><g id="Layer_1-2" data-name="Layer 1"><path class="cls-1" d="M52.91,584.33c23.87-13.59,50.24-28,105-36.44,34.6-5.34,77.63-17.79,106-6.95s31.21,15.42,12.06,21.19S41.87,612.56,39,610.21,27.14,599,52.91,584.33Z"/><path class="cls-2" d="M109.06,598c2.28,4.69,4.36,4.16,8.77,4.2,5.39,0,7.4-.9,14.27-3.43,10.6-3.89,19.6-10.3,20.45-13.19s-5.57-4.76-13.31-3.46c-4.18.69-10.49,4.91-12.4,2.19-2.23-3.17-4.25-9.89-4.25-9.89h-16s1.74,10.08,1.58,13.11C107.76,594.07,108.5,596.89,109.06,598Z"/><path class="cls-3" d="M126.84,584.35a7.36,7.36,0,0,1-.4-.62,49.2,49.2,0,0,1-3.85-9.27h-16s.58,3.34,1,6.75a25.81,25.81,0,0,0,8.49,3.4C118.71,585.08,126.84,584.35,126.84,584.35Z"/><path class="cls-4" d="M108,592s-.13,4.33.82,6.08c2.35,4.31,4.7,4.82,9.11,4.86,5.38.05,7.26-1.59,14.13-4.12,10.6-3.89,19.6-10.3,20.45-13.19s-5.57-4.76-13.31-3.46c0,0,10.25.45,8.06,3.33s-15.25,8-21.44,10C121.68,596.87,111.86,596.36,108,592Z"/><path class="cls-2" d="M31.86,581.74s1.74,10.08,1.58,13.11c-.35,6.51.38,9.32.94,10.47,2.28,4.69,4.36,4.16,8.78,4.2,5.38.05,7.39-.9,14.27-3.43C68,602.2,77,595.79,77.87,592.9s-5.57-4.75-13.31-3.46c-4.17.69-10.49,4.91-12.4,2.2-2.23-3.18-4.25-9.9-4.25-9.9"/><path class="cls-3" d="M32.9,588.49a25.46,25.46,0,0,0,8.48,3.4c2.66.47,10.78-.25,10.78-.25l-.4-.62a49.46,49.46,0,0,1-3.85-9.28"/><path class="cls-4" d="M33.37,599.27s-.13,4.33.82,6.08c2.34,4.32,4.69,4.82,9.11,4.86,5.38,0,7.25-1.59,14.13-4.12C68,602.2,77,595.79,77.87,592.9s-5.57-4.75-13.31-3.46c0,0,10.26.46,8.06,3.33s-15.25,8-21.43,10C47,604.15,37.19,603.64,33.37,599.27Z"/><path class="cls-2" d="M91.7,21.83c2.8,4.2,1.52,24.8,2.89,27.08s2.72,3.41,2.64,4.49S94.71,54.73,95,56.21c.38,2.08-2.13,22.21-6.07,21.63C83.37,77,72.08,83,78,98.9c1.36,3.66-31.51,0-31.51,0a31.24,31.24,0,0,0,3.19-8.71c1.16-5.34-3.57-14.35-3.88-17.39S82.18,7.57,91.7,21.83Z"/><path class="cls-5" d="M165.65,154.64c-.26-2.37,15.69,1.37,16.84,5.07,1.06,3.41-9.77,0-12.81-.79A5,5,0,0,1,165.65,154.64Z"/><path class="cls-2" d="M178.82,161.79c.7-1.45,11.89-12.37,12.34-16.79s2-11.51.57-12.75-1.27,0-1.59,3-2.51,10.78-4.51,11.59-8-6.23-12.12-3.45-3.47,1.88-4.89,9.89a76,76,0,0,1-3.55,13.42l6.22,2.6Z"/><path class="cls-6" d="M88.28,30c-.18,3,.52,4.52,0,5.91s-5.92,7.48-8,12.35S75.87,60.75,75.9,64.57s-6.06,12.7-6.06,12.7l4.52-41.22Z"/><path class="cls-1" d="M57.39,94.16c6.63.29,24.38-.57,27.34,7.31s5.72,9.1,5.72,9.1-50-4.72-54.56-1C41.76,102,47.15,95.41,49.32,94.69S57.39,94.16,57.39,94.16Z"/><path class="cls-7" d="M72.16,103.42c12.71,2.36,27,5.74,35,8s18,14.62,22.13,33.56,13.7,35.31,19.3,44.23c4.37-3.88,17-35.35,17.08-34.48,1,8.26,17,2.45,16.92,6-.28,8-21.17,58.72-38.33,56.37-11.44-1.56-22.54-21.38-28.84-30C105,211,108.91,235,111.47,260.41c1.77,17.59-16.81,8.08-16.81,8.08s-6.56-1-22.18,1.9-17.81-4.53-32.8,4.81-13.53,4.67-13.53,4.67-1.71-8.27-4.59-21.23c-5.19-23.35-2.18-25-7.92-46.84-3.3-12.56,3.27-33.43,3.27-33.43s7.59,39.69,8.61,51.7,8.67,26.81,10.37,54.5c.37,6-9.64,7.77-9.64,7.77.67-.09-26.34-56-26.09-85.1C.41,179.51,1.54,138,10.51,128.72,33.81,104.69,52,99.67,72.16,103.42Z"/><path class="cls-4" d="M115.55,268.41s18.8,75.86,20.35,153.44c1,52.26-7.1,152.76-7.1,152.76s-6.66,9.3-26.09-1.31c-.79-41.7,1.55-111.8-4.72-136.79S72.5,350.4,72.5,350.4c3,18.3.16,109.42-2.91,139.2s-16.68,94.73-16.68,94.73-6.3,5.52-13.83,3.73c-12.63-3-11.26-9-11.26-9s19.77-135.47,6.79-201c-6.71-33.92-14.47-45.4-10.17-87.77a169.85,169.85,0,0,1,2.63-17.05,40.55,40.55,0,0,1,21.81-9.18C86.86,260.09,115.55,268.41,115.55,268.41Z"/><path class="cls-8" d="M65.54,0C46-.35,25.43,11,24.54,32.1c-1,24-11.84,22.26-16.35,37.76C5.39,79.46,9.37,91.12,16.34,92,30.57,93.64,27,97.13,38.28,98.52c7.24.9,29.62,1.78,33.34-15.25,1.38-6.33-1.25-21.92,4.21-33,2.42-4.91,14.25-13.37,16.23-18,2.5-5.77,4-12.2,2.86-16.72C93.33,9.52,82.21.32,65.54,0Z"/><path class="cls-9" d="M37.35,107.91c9.94-6.51,16-8.56,42.29-3.2C79.64,104.71,45.25,101.17,37.35,107.91Z"/><path class="cls-9" d="M115.4,187.09c-7.11-9-14.49-25.67-14.21-31.88,0,0,1,26.61,2.44,33.06,1.15,5.06,5.42,12.17,7,12.7A80.74,80.74,0,0,1,115.4,187.09Z"/><path class="cls-9" d="M149,188.27a14.85,14.85,0,0,1,1.42,3.27,10.36,10.36,0,0,1,.36,1.76,3.93,3.93,0,0,1-.17,1.77,5.14,5.14,0,0,0,0-1.75,12.52,12.52,0,0,0-.41-1.71c-.16-.57-.35-1.12-.55-1.68S149.17,188.82,149,188.27Z"/><path class="cls-9" d="M111.29,113.13a4.92,4.92,0,0,0-3.36.18,7.38,7.38,0,0,0-2.82,1.87,8.71,8.71,0,0,0-1.81,2.89,13.2,13.2,0,0,0-.75,3.36,11.47,11.47,0,0,1,.57-3.43,8.66,8.66,0,0,1,1.81-3,7.32,7.32,0,0,1,2.94-1.88A4.69,4.69,0,0,1,111.29,113.13Z"/><polygon class="cls-10" points="180.6 114.98 171.63 145.9 186.62 149.73 195.79 117.84 180.6 114.98"/><polygon class="cls-11" points="181.01 116.56 173.12 144.17 186.25 147.58 194.32 119.09 181.01 116.56"/><path class="cls-2" d="M189.7,144.92c-2-.65-4.32.65-4.95-1s-2.56-6.47-3.22-4.74-.34,5.72,0,8-3.51,2.54-4.67,2.37,5.94,4.34,5.94,4.34l4.19-3.11Z"/><path class="cls-2" d="M174.48,136.06c-.89.24-2.45.75-2.42.24s2.06-2.22,2.52-2.51a1.22,1.22,0,0,1,.63-.23Z"/><path class="cls-2" d="M173.67,138.79a3,3,0,0,1-1.1-.12c-.22-.15.57-1.49,1.59-1.57Z"/><path class="cls-2" d="M172.68,142.32a3,3,0,0,1-1.11-.11c-.21-.16.7-1.93,1.73-2Z"/><path class="cls-9" d="M11,128.66c-.69,1.57-1.29,3.18-1.86,4.81a49.63,49.63,0,0,0-1.4,4.94,39.52,39.52,0,0,0-.88,5.07,30.42,30.42,0,0,0,0,5.14,23.44,23.44,0,0,1-.15-5.16,40,40,0,0,1,.79-5.1A47.43,47.43,0,0,1,11,128.66Z"/><path class="cls-9" d="M25.75,259.43c.52-5.07.83-9.8,1-14.22C28,206.61,16.5,191.47,16,182.81c0,0,10.16,55.05,9.76,57.75"/><path class="cls-9" d="M13,140.2a80.56,80.56,0,0,1,6.73-4.73,52.12,52.12,0,0,1,7.33-3.74A59.42,59.42,0,0,1,43,127.57a77.23,77.23,0,0,1,16.44-.22c2.75.14,5.45.62,8.17,1,1.37.16,2.7.52,4.05.77l4,.83-4.05-.77c-1.35-.23-2.68-.57-4-.71-2.71-.34-5.42-.81-8.16-.93a76.85,76.85,0,0,0-16.4.3,59.6,59.6,0,0,0-15.86,4.06A63.54,63.54,0,0,0,13,140.2Z"/><path class="cls-12" d="M112.71,276l-21.14-.61c-7-.17-14.09-.28-21.14-.26s-14.1,0-21.1.69A63.83,63.83,0,0,0,39,277.68a34.88,34.88,0,0,0-5,1.72,13.22,13.22,0,0,0-4.39,2.86,13.17,13.17,0,0,1,4.33-3,29.26,29.26,0,0,1,5-1.84,64.54,64.54,0,0,1,10.41-2c3.51-.39,7-.57,10.56-.67s7.06-.16,10.58-.14c7.06,0,14.1.2,21.15.42S105.67,275.61,112.71,276Z"/><path class="cls-12" d="M33,271.88c-.24.68-.5,1.34-.67,2a12.2,12.2,0,0,0-.37,2.06,11.22,11.22,0,0,0,0,2.09,10.94,10.94,0,0,0,.33,2.09,6.09,6.09,0,0,1-.71-2.05,7.23,7.23,0,0,1-.09-2.18,7.73,7.73,0,0,1,.51-2.12A8,8,0,0,1,33,271.88Z"/><path class="cls-12" d="M34.18,271.57c-.28.15-.32.53-.39.82s-.12.63-.16.95c-.07.64-.14,1.29-.18,1.93s-.07,1.29-.08,1.93a10.45,10.45,0,0,0,.14,1.93,5,5,0,0,1-.52-1.91,11,11,0,0,1,0-2,12.07,12.07,0,0,1,.3-2,8.1,8.1,0,0,1,.31-.95,2.73,2.73,0,0,1,.23-.45C33.88,271.74,34,271.57,34.18,271.57Z"/><path class="cls-12" d="M53.81,267.05a13.22,13.22,0,0,0,.06,1.89l.17,1.88c.1,1.25.22,2.51.22,3.79a14.86,14.86,0,0,1-.46-1.86c-.12-.62-.2-1.25-.26-1.89a15.28,15.28,0,0,1-.06-1.92A5.83,5.83,0,0,1,53.81,267.05Z"/><path class="cls-12" d="M55.73,266.7a29.64,29.64,0,0,1,.9,3.92,28,28,0,0,1,.4,4,27.65,27.65,0,0,1-.89-3.91A29.63,29.63,0,0,1,55.73,266.7Z"/><path class="cls-12" d="M80.54,265.76a10,10,0,0,0,.12,1.89l.28,1.87c.18,1.26.38,2.51.48,3.8a13.14,13.14,0,0,1-.59-1.84c-.17-.62-.28-1.25-.39-1.88a13.81,13.81,0,0,1-.16-1.92A5,5,0,0,1,80.54,265.76Z"/><path class="cls-12" d="M83.1,265.76a35,35,0,0,1,.67,3.77c.07.63.15,1.26.21,1.89s.12,1.26.21,1.9a8.4,8.4,0,0,1-.59-1.84c-.15-.62-.24-1.26-.33-1.89A22.29,22.29,0,0,1,83.1,265.76Z"/><path class="cls-12" d="M107.46,264.8a11.56,11.56,0,0,1,.65,2.07c.17.71.29,1.42.41,2.13a28.37,28.37,0,0,1,.33,4.32,41.41,41.41,0,0,1-.83-4.25C107.81,267.65,107.65,266.23,107.46,264.8Z"/><path class="cls-12" d="M109.69,264.8a25.32,25.32,0,0,1,1.37,4.16,19.53,19.53,0,0,1,.39,2.16,7.06,7.06,0,0,1,0,2.2,15.49,15.49,0,0,0-.39-2.14l-.5-2.11C110.24,267.66,109.91,266.25,109.69,264.8Z"/><path class="cls-8" d="M178.82,161.79a.67.67,0,0,1,.72.31,1.2,1.2,0,0,1,.14.83,1.4,1.4,0,0,1-1.18,1.18.86.86,0,0,1-.78-.46,1.22,1.22,0,0,1-.12-.86A1.33,1.33,0,0,1,178.82,161.79Zm0,0a1.68,1.68,0,0,0-.75.32,1.1,1.1,0,0,0-.35.7c-.05.51.29,1.1.77,1.05a1.33,1.33,0,0,0,1.07-1,1.11,1.11,0,0,0-.05-.78A.68.68,0,0,0,178.82,161.79Z"/><path class="cls-8" d="M177.35,164.63a.67.67,0,0,1,.72.3,1.2,1.2,0,0,1,.14.83A1.41,1.41,0,0,1,177,167a.88.88,0,0,1-.78-.46,1.24,1.24,0,0,1-.12-.86A1.32,1.32,0,0,1,177.35,164.63Zm0,0a1.68,1.68,0,0,0-.75.32,1.07,1.07,0,0,0-.35.7c-.05.5.29,1.09.77,1a1.33,1.33,0,0,0,1.07-1A1.11,1.11,0,0,0,178,165,.66.66,0,0,0,177.35,164.63Z"/><path class="cls-8" d="M175.59,167.46a.69.69,0,0,1,.73.31,1.13,1.13,0,0,1,.13.83,1.38,1.38,0,0,1-1.17,1.18.85.85,0,0,1-.78-.46,1.28,1.28,0,0,1-.13-.86A1.35,1.35,0,0,1,175.59,167.46Zm0,0a1.64,1.64,0,0,0-.74.32,1,1,0,0,0-.35.7c-.06.51.29,1.1.77,1.05a1.3,1.3,0,0,0,1.06-1,1.05,1.05,0,0,0,0-.78A.67.67,0,0,0,175.59,167.46Z"/><path class="cls-8" d="M173.79,170.05a.71.71,0,0,1,.73.31,1.19,1.19,0,0,1,.13.83,1.38,1.38,0,0,1-1.17,1.18.84.84,0,0,1-.78-.46,1.23,1.23,0,0,1-.13-.86A1.34,1.34,0,0,1,173.79,170.05Zm0,0a1.68,1.68,0,0,0-.75.32,1.15,1.15,0,0,0-.35.7c-.05.51.29,1.1.77,1.05a1.3,1.3,0,0,0,1.07-1,1.05,1.05,0,0,0,0-.78A.69.69,0,0,0,173.79,170.05Z"/><path class="cls-9" d="M161.32,166.08a20.5,20.5,0,0,0,8,4,17.06,17.06,0,0,1-4.35-1.31A11.28,11.28,0,0,1,161.32,166.08Z"/><path class="cls-9" d="M17.36,218.8c-1.12.54-2.25,1.07-3.4,1.56a30,30,0,0,1-3.51,1.28,6.25,6.25,0,0,1-3.73.16,2.77,2.77,0,0,1-1.42-1.23,4.69,4.69,0,0,1-.38-.86c-.08-.3-.15-.61-.22-.91a3.67,3.67,0,0,0,2.08,2.82,6.34,6.34,0,0,0,3.6-.22,33.89,33.89,0,0,0,3.51-1.22Z"/><path class="cls-13" d="M71.81,457.16c2.4-47.11,2.88-102.51.33-107.94s-11-16.56-11-16.56Z"/><path class="cls-14" d="M108.48,290a55,55,0,0,1,1.79,5.3c.54,1.78,1,3.58,1.54,5.37.92,3.62,1.86,7.22,2.63,10.87l-2.87-10.8c-.47-1.81-.95-3.6-1.46-5.4S109.09,291.78,108.48,290Z"/><path class="cls-12" d="M63.29,291.88c1.19,5.37,1.26,10.94,2.43,16.29a19.46,19.46,0,0,0,1.24,3.9,6.15,6.15,0,0,0,2.52,3,3.91,3.91,0,0,0,1.9.45c.65,0,1.35-.12,2-.18,1.37-.12,2.75-.22,4.12-.31s2.74-.17,4.11-.29a16.25,16.25,0,0,0,4-.68,1.78,1.78,0,0,0,.75-.49.65.65,0,0,0,.13-.35,4,4,0,0,0,0-.48c0-.67-.14-1.35-.22-2l-.49-4.1c-.33-2.73-.65-5.46-.89-8.2a46.7,46.7,0,0,1-.21-8.28l.2.19c-1.8.34-3.59.46-5.39.62s-3.6.27-5.39.39C70.5,291.56,66.9,291.73,63.29,291.88Zm0,0q5.4-.36,10.79-.78c1.79-.13,3.59-.27,5.38-.43s3.6-.32,5.34-.66l.23,0,0,.23a47.85,47.85,0,0,0,.28,8.19c.27,2.73.6,5.46.95,8.18l.53,4.1c.07.68.15,1.36.2,2.06a5,5,0,0,1,0,.55,1.08,1.08,0,0,1-.23.6,2.2,2.2,0,0,1-1,.63,16.45,16.45,0,0,1-4.12.69c-1.38.11-2.75.18-4.12.26s-2.75.17-4.11.29c-.69.05-1.35.16-2.07.17a4.37,4.37,0,0,1-2.07-.51,6.56,6.56,0,0,1-2.65-3.21,20.62,20.62,0,0,1-1.23-4C64.26,302.83,64.36,297.28,63.29,291.88Z"/><path class="cls-12" d="M27.9,318.38a12.26,12.26,0,0,0,4.2.78,20.16,20.16,0,0,0,4.26-.23,5.1,5.1,0,0,0,2-.69,1,1,0,0,0,.47-.73,6.48,6.48,0,0,0-.19-1c-.37-1.37-.81-2.75-1.19-4.13a43,43,0,0,1-1.62-8.5,22.75,22.75,0,0,1,.9-8.6l.27.27a34.81,34.81,0,0,1-4.5,1.12,12,12,0,0,1-2.32.18,4.63,4.63,0,0,1-2.23-.55,4.51,4.51,0,0,0,2.23.41,15.86,15.86,0,0,0,2.27-.3,35.78,35.78,0,0,0,4.41-1.27l.4-.13-.13.4a22.44,22.44,0,0,0-.81,8.44,45.62,45.62,0,0,0,1.56,8.41c.37,1.38.81,2.74,1.16,4.15a4.87,4.87,0,0,1,.17,1.12,1.3,1.3,0,0,1-.65,1,5.56,5.56,0,0,1-2.09.7,18.47,18.47,0,0,1-4.33.1A12.3,12.3,0,0,1,27.9,318.38Z"/><path class="cls-7" d="M111.47,261.78c1.34,4.17,6.5,8.27,4.24,7.28s-15.62.64-20.14-1.6-4.62-3.82-5.86-3.7-13.39-3.39-16.89,0-6.15,4.84-11.32,3.7-9.53-2.24-13.86-1.73-14,6.83-15.33,6.15c-2.33-1.22-5.88,2.6-5.46,1.34s2.55-8.57,8.55-10.57,63.8-2.93,70.5-.37S108.29,251.82,111.47,261.78Z"/><path class="cls-9" d="M42.31,239.25s1.37,22.4.45,27.8c-1.39,1.59-3.79,1.85-5.49,3C36.35,267.38,42.31,239.25,42.31,239.25Z"/><path class="cls-9" d="M73,229.14s3.8,25.88,2.89,33.95c4.14.13,7.2.25,8.54.43C91.87,264.5,73,229.14,73,229.14Z"/><path class="cls-9" d="M97.12,259.43c1.28,3.14,1.4,9.81-.78,8.36C96.34,267.79,96.59,260.14,97.12,259.43Z"/><path class="cls-9" d="M89.12,263.92a24.36,24.36,0,0,0,.78-7.75c1.28,3.15,1.34,8.11.69,7.9"/><path class="cls-9" d="M154.42,179.35c1.82-3.14.85,7.12.85,7.12s-1-2.89-1.7-3.3c.08,1.47-1.47,3.78-1.47,3.78s.7,5.28,0,5.3c-.54-2.13-3.42-3-2.71-4C151.88,184.86,152.41,182.83,154.42,179.35Z"/><path class="cls-1" d="M7.37,134c-3.36,6.59-3.09,12.1-5.48,37C-.76,198.71.15,207.76.15,207.76s2.94-24.45,3.34-29.15C5.73,152.31,3.35,146.45,7.37,134Z"/></g></g></svg>