<svg xmlns="http://www.w3.org/2000/svg" viewBox="0 0 520 300"><defs><style>.cls-1{fill:#fff;}.cls-2{fill:#333;}.cls-3{fill:#2d9ff5;}.cls-4{fill:#f5f5f5;}.cls-5{fill:#878787;}.cls-6{fill:#0068a8;}.cls-7{fill:#c41633;}.cls-8{fill:#4bdd4b;}.cls-9{fill:#b2b2b2;}.cls-10{opacity:0.25;}</style></defs><title>Asset 2</title><g id="Layer_2" data-name="Layer 2"><g id="Layer_1-2" data-name="Layer 1"><rect class="cls-1" width="520" height="300"/><rect class="cls-2" x="10" y="7.5" width="500" height="285"/><rect class="cls-3" x="15.56" y="45.23" width="488.87" height="241.86"/><rect class="cls-4" x="15.56" y="45.23" width="488.87" height="25.39"/><rect class="cls-3" x="15.56" y="260.02" width="488.87" height="27.06"/><rect class="cls-4" x="109.94" y="263.48" width="108.51" height="20.15"/><path class="cls-1" d="M83.2,274.55H36.14a1,1,0,1,1,0-2H83.2a1,1,0,0,1,0,2Z"/><path class="cls-5" d="M182.92,274.55H135.85a1,1,0,1,1,0-2h47.07a1,1,0,1,1,0,2Z"/><path class="cls-1" d="M283.53,274.55H236.47a1,1,0,1,1,0-2h47.06a1,1,0,0,1,0,2Z"/><path class="cls-1" d="M347.16,274.55H300.1a1,1,0,0,1,0-2h47.06a1,1,0,0,1,0,2Z"/><path class="cls-1" d="M404.77,274.55H365.4a1,1,0,0,1,0-2h39.37a1,1,0,0,1,0,2Z"/><path class="cls-1" d="M480.35,274.55H441a1,1,0,0,1,0-2h39.37a1,1,0,0,1,0,2Z"/><rect class="cls-6" x="15.56" y="232.96" width="488.87" height="27.06"/><rect class="cls-6" x="419.68" y="232.96" width="84.76" height="27.06"/><rect class="cls-4" x="109.94" y="236.42" width="108.51" height="20.15"/><path class="cls-1" d="M83.2,247.49H36.14a1,1,0,1,1,0-2H83.2a1,1,0,0,1,0,2Z"/><path class="cls-1" d="M283.53,247.49H236.47a1,1,0,0,1,0-2h47.06a1,1,0,0,1,0,2Z"/><path class="cls-1" d="M347.16,247.49H300.1a1,1,0,0,1,0-2h47.06a1,1,0,1,1,0,2Z"/><path class="cls-1" d="M404.77,247.49H365.4a1,1,0,0,1,0-2h39.37a1,1,0,0,1,0,2Z"/><path class="cls-7" d="M480.35,247.49H441a1,1,0,0,1,0-2h39.37a1,1,0,0,1,0,2Z"/><rect class="cls-3" x="15.56" y="205.91" width="488.87" height="27.06"/><rect class="cls-4" x="109.94" y="209.36" width="108.51" height="20.15"/><path class="cls-1" d="M83.2,220.43H36.14a1,1,0,1,1,0-2H83.2a1,1,0,0,1,0,2Z"/><path class="cls-5" d="M187.73,220.43H140.66a1,1,0,0,1,0-2h47.07a1,1,0,0,1,0,2Z"/><path class="cls-1" d="M283.53,220.43H236.47a1,1,0,1,1,0-2h47.06a1,1,0,0,1,0,2Z"/><path class="cls-2" d="M347.16,220.43H300.1a1,1,0,0,1,0-2h47.06a1,1,0,0,1,0,2Z"/><path class="cls-2" d="M404.77,220.43H365.4a1,1,0,0,1,0-2h39.37a1,1,0,0,1,0,2Z"/><path class="cls-7" d="M480.35,220.43H441a1,1,0,0,1,0-2h39.37a1,1,0,0,1,0,2Z"/><rect class="cls-6" x="15.56" y="178.85" width="488.87" height="27.06"/><rect class="cls-4" x="109.94" y="182.3" width="108.51" height="20.15"/><path class="cls-1" d="M83.2,193.38H36.14a1,1,0,1,1,0-2H83.2a1,1,0,0,1,0,2Z"/><path class="cls-5" d="M165.78,193.38H118.72a1,1,0,0,1,0-2h47.06a1,1,0,0,1,0,2Z"/><path class="cls-1" d="M283.53,193.38H236.47a1,1,0,0,1,0-2h47.06a1,1,0,0,1,0,2Z"/><path class="cls-1" d="M347.16,193.38H300.1a1,1,0,0,1,0-2h47.06a1,1,0,0,1,0,2Z"/><path class="cls-1" d="M404.77,193.38H365.4a1,1,0,0,1,0-2h39.37a1,1,0,0,1,0,2Z"/><path class="cls-8" d="M480.35,193.38H441a1,1,0,0,1,0-2h39.37a1,1,0,0,1,0,2Z"/><rect class="cls-3" x="15.56" y="151.79" width="488.87" height="27.06"/><rect class="cls-4" x="109.94" y="155.24" width="108.51" height="20.15"/><path class="cls-1" d="M83.2,166.32H36.14a1,1,0,1,1,0-2H83.2a1,1,0,0,1,0,2Z"/><path class="cls-2" d="M166.08,166.32H119a1,1,0,1,1,0-2h47.07a1,1,0,0,1,0,2Z"/><path class="cls-1" d="M283.53,166.32H236.47a1,1,0,1,1,0-2h47.06a1,1,0,0,1,0,2Z"/><path class="cls-1" d="M347.16,166.32H300.1a1,1,0,0,1,0-2h47.06a1,1,0,0,1,0,2Z"/><path class="cls-1" d="M404.77,166.32H365.4a1,1,0,0,1,0-2h39.37a1,1,0,0,1,0,2Z"/><path class="cls-7" d="M480.35,166.32H441a1,1,0,0,1,0-2h39.37a1,1,0,0,1,0,2Z"/><rect class="cls-6" x="15.56" y="124.73" width="488.87" height="27.06"/><rect class="cls-4" x="109.94" y="128.18" width="108.51" height="20.15"/><path class="cls-1" d="M83.2,139.26H36.14a1,1,0,1,1,0-2H83.2a1,1,0,0,1,0,2Z"/><path class="cls-2" d="M168.48,139.26H137.39a1,1,0,0,1,0-2h31.09a1,1,0,1,1,0,2Z"/><path class="cls-1" d="M283.53,139.26H236.47a1,1,0,0,1,0-2h47.06a1,1,0,0,1,0,2Z"/><path class="cls-1" d="M331.67,139.26H300.1a1,1,0,0,1,0-2h31.57a1,1,0,0,1,0,2Z"/><path class="cls-1" d="M404.77,139.26H377.61a1,1,0,0,1,0-2h27.16a1,1,0,0,1,0,2Z"/><path class="cls-7" d="M480.35,139.26H441a1,1,0,0,1,0-2h39.37a1,1,0,0,1,0,2Z"/><rect class="cls-3" x="15.56" y="97.67" width="488.87" height="27.06"/><rect class="cls-4" x="109.94" y="101.13" width="108.51" height="20.15"/><path class="cls-1" d="M83.2,112.2H36.14a1,1,0,0,1,0-2H83.2a1,1,0,0,1,0,2Z"/><path class="cls-2" d="M191,113.07H137.39a1,1,0,0,1,0-2H191a1,1,0,0,1,0,2Z"/><path class="cls-1" d="M283.53,112.2H236.47a1,1,0,0,1,0-2h47.06a1,1,0,0,1,0,2Z"/><path class="cls-1" d="M347.16,112.2H300.1a1,1,0,0,1,0-2h47.06a1,1,0,0,1,0,2Z"/><path class="cls-1" d="M404.77,112.2H365.4a1,1,0,0,1,0-2h39.37a1,1,0,0,1,0,2Z"/><path class="cls-7" d="M480.35,112.2H441a1,1,0,0,1,0-2h39.37a1,1,0,0,1,0,2Z"/><rect class="cls-3" x="15.56" y="43.55" width="488.87" height="27.06"/><rect class="cls-1" x="15.56" y="12.92" width="488.87" height="31"/><rect class="cls-4" x="109.94" y="47.01" width="108.51" height="20.15"/><path class="cls-1" d="M83.2,58.08H36.14a1,1,0,0,1,0-2H83.2a1,1,0,0,1,0,2Z"/><path class="cls-2" d="M177.93,58.08H130.86a1,1,0,0,1,0-2h47.07a1,1,0,0,1,0,2Z"/><path class="cls-1" d="M283.53,58.08H236.47a1,1,0,0,1,0-2h47.06a1,1,0,0,1,0,2Z"/><path class="cls-1" d="M347.16,58.08H300.1a1,1,0,0,1,0-2h47.06a1,1,0,0,1,0,2Z"/><path class="cls-1" d="M404.77,58.08H365.4a1,1,0,0,1,0-2h39.37a1,1,0,0,1,0,2Z"/><path class="cls-1" d="M480.35,58.08H441a1,1,0,0,1,0-2h39.37a1,1,0,0,1,0,2Z"/><rect class="cls-6" x="15.56" y="70.61" width="488.87" height="27.06"/><rect class="cls-4" x="109.94" y="74.07" width="108.51" height="20.15"/><path class="cls-1" d="M83.2,85.14H36.14a1,1,0,0,1,0-2H83.2a1,1,0,0,1,0,2Z"/><path class="cls-2" d="M177.93,85.14H130.86a1,1,0,0,1,0-2h47.07a1,1,0,0,1,0,2Z"/><path class="cls-1" d="M283.53,85.14H236.47a1,1,0,0,1,0-2h47.06a1,1,0,0,1,0,2Z"/><path class="cls-1" d="M347.16,85.14H300.1a1,1,0,0,1,0-2h47.06a1,1,0,0,1,0,2Z"/><path class="cls-1" d="M404.77,85.14H365.4a1,1,0,0,1,0-2h39.37a1,1,0,0,1,0,2Z"/><path class="cls-8" d="M480.35,85.14H441a1,1,0,0,1,0-2h39.37a1,1,0,0,1,0,2Z"/><path class="cls-2" d="M32,20.87a6.88,6.88,0,0,1,2.38.41,5.21,5.21,0,0,1,1.9,1.22,5.67,5.67,0,0,1,1.25,2A8,8,0,0,1,38,27.39a9.34,9.34,0,0,1-.37,2.66,6,6,0,0,1-1.12,2.11,5.29,5.29,0,0,1-1.86,1.39,6.34,6.34,0,0,1-2.64.51H26.28V20.87Zm-.2,10.75a3.85,3.85,0,0,0,1.22-.2A2.72,2.72,0,0,0,34,30.74a3.23,3.23,0,0,0,.74-1.23,5.24,5.24,0,0,0,.28-1.84,7.56,7.56,0,0,0-.2-1.8,3.73,3.73,0,0,0-.63-1.38A2.83,2.83,0,0,0,33,23.62a4.51,4.51,0,0,0-1.8-.31H29.18v8.31Z"/><path class="cls-2" d="M49.82,20.87v2.44h-7v2.83h6.38v2.25H42.86v3.23H50v2.44H40V20.87Z"/><path class="cls-2" d="M57.87,20.87a5.49,5.49,0,0,1,2.1.36,3.83,3.83,0,0,1,1.41,1,3.6,3.6,0,0,1,.8,1.34,5,5,0,0,1,0,3.13,3.6,3.6,0,0,1-.8,1.36A3.93,3.93,0,0,1,60,29a5.49,5.49,0,0,1-2.1.36h-3v4.73h-2.9V20.87Zm-.8,6.21A5.92,5.92,0,0,0,58,27a2.15,2.15,0,0,0,.82-.28,1.55,1.55,0,0,0,.56-.6,2.15,2.15,0,0,0,.21-1,2.11,2.11,0,0,0-.21-1,1.55,1.55,0,0,0-.56-.6A2.35,2.35,0,0,0,58,23.2a5.94,5.94,0,0,0-1-.07H54.82v3.95Z"/><path class="cls-2" d="M69.44,20.87l4.93,13.19h-3l-1-2.94H65.44l-1,2.94H61.49l5-13.19ZM69.61,29,68,24.12h0L66.19,29Z"/><path class="cls-2" d="M82.62,20.87a4.23,4.23,0,0,1,1.6.29,3.52,3.52,0,0,1,1.22.79,3.35,3.35,0,0,1,.78,1.15A4.19,4.19,0,0,1,86,26.52a3,3,0,0,1-1.59,1.3v0a2.17,2.17,0,0,1,.88.46,2.39,2.39,0,0,1,.58.72,3.62,3.62,0,0,1,.32.91,8.3,8.3,0,0,1,.14,1c0,.21,0,.45,0,.73s0,.58.07.87a5.23,5.23,0,0,0,.15.84,1.93,1.93,0,0,0,.3.68H84a4.93,4.93,0,0,1-.29-1.5c0-.58-.1-1.13-.17-1.66a2.61,2.61,0,0,0-.63-1.51,2.15,2.15,0,0,0-1.57-.48h-2.9v5.15H75.52V20.87Zm-1,6a2.19,2.19,0,0,0,1.5-.45A1.83,1.83,0,0,0,83.58,25a1.75,1.75,0,0,0-.49-1.39,2.24,2.24,0,0,0-1.5-.43H78.41v3.71Z"/><path class="cls-2" d="M87.48,23.31V20.87h10.8v2.44h-4V34.06h-2.9V23.31Z"/><path class="cls-2" d="M109.49,33.05a7.27,7.27,0,0,1-8.28,0,5,5,0,0,1-1.47-4v-8.2h2.9v8.2a6,6,0,0,0,.09,1.05,2.11,2.11,0,0,0,.39.92,2.06,2.06,0,0,0,.82.64,3.27,3.27,0,0,0,1.41.25,2.72,2.72,0,0,0,2.14-.69,3.25,3.25,0,0,0,.59-2.17v-8.2H111v8.2A5,5,0,0,1,109.49,33.05Z"/><path class="cls-2" d="M120.58,20.87a4.3,4.3,0,0,1,1.6.29,3.62,3.62,0,0,1,1.22.79,3.32,3.32,0,0,1,.77,1.15,3.69,3.69,0,0,1,.27,1.41,3.89,3.89,0,0,1-.49,2,3.11,3.11,0,0,1-1.6,1.3v0a2.15,2.15,0,0,1,.89.46,2.52,2.52,0,0,1,.57.72,3.28,3.28,0,0,1,.33.91,8.28,8.28,0,0,1,.13,1c0,.21,0,.45,0,.73s0,.58.07.87a6.68,6.68,0,0,0,.14.84,1.94,1.94,0,0,0,.31.68h-2.9a5.24,5.24,0,0,1-.3-1.5c0-.58-.09-1.13-.16-1.66a2.61,2.61,0,0,0-.63-1.51,2.15,2.15,0,0,0-1.57-.48h-2.9v5.15h-2.9V20.87Zm-1,6a2.16,2.16,0,0,0,1.49-.45,1.8,1.8,0,0,0,.5-1.44,1.72,1.72,0,0,0-.5-1.39,2.21,2.21,0,0,0-1.49-.43h-3.18v3.71Z"/><path class="cls-2" d="M136.66,20.87v2.44h-7v2.83h6.39v2.25H129.7v3.23h7.11v2.44h-10V20.87Z"/><path class="cls-2" d="M141,30.81a2,2,0,0,0,.64.74,2.49,2.49,0,0,0,.93.43,4.56,4.56,0,0,0,1.11.14,5,5,0,0,0,.83-.07,2.58,2.58,0,0,0,.83-.25,1.89,1.89,0,0,0,.65-.5,1.31,1.31,0,0,0,.26-.83,1.15,1.15,0,0,0-.35-.86,2.66,2.66,0,0,0-.89-.56,10,10,0,0,0-1.26-.38l-1.42-.37a14.19,14.19,0,0,1-1.44-.46,4.72,4.72,0,0,1-1.25-.69,3.3,3.3,0,0,1-.9-1.06,3.19,3.19,0,0,1-.34-1.54,3.4,3.4,0,0,1,.43-1.76A3.9,3.9,0,0,1,140,21.54a5,5,0,0,1,1.59-.74,6.74,6.74,0,0,1,1.77-.24,8.52,8.52,0,0,1,2,.23,4.9,4.9,0,0,1,1.69.75,3.63,3.63,0,0,1,1.17,1.32,4,4,0,0,1,.44,1.95h-2.81a2.27,2.27,0,0,0-.25-1,1.65,1.65,0,0,0-.56-.61,2.27,2.27,0,0,0-.8-.31,4.37,4.37,0,0,0-1-.1,3.34,3.34,0,0,0-.7.08,1.73,1.73,0,0,0-.64.26,1.47,1.47,0,0,0-.47.46,1.25,1.25,0,0,0-.18.7,1.18,1.18,0,0,0,.14.63,1.41,1.41,0,0,0,.58.44,8.57,8.57,0,0,0,1.2.41l2,.51c.24.05.59.14,1,.27a5,5,0,0,1,1.3.62,3.89,3.89,0,0,1,1.12,1.13,3.28,3.28,0,0,1,.47,1.82,4,4,0,0,1-.35,1.68,3.56,3.56,0,0,1-1,1.34,5,5,0,0,1-1.72.88,8.06,8.06,0,0,1-2.37.31,8.33,8.33,0,0,1-2.12-.27,5,5,0,0,1-1.8-.84,4.08,4.08,0,0,1-1.25-1.45,4.29,4.29,0,0,1-.44-2.11h2.8A2.45,2.45,0,0,0,141,30.81Z"/><path class="cls-9" d="M127,277.46s-3.36-3.93,0-9.51c-5.86,2-8.09,9.51-8.09,9.51"/><path class="cls-2" d="M182,248.36H134.89a1,1,0,0,1,0-2H182a1,1,0,1,1,0,2Z"/><path class="cls-9" d="M128.16,251.52s-3.36-3.93,0-9.51c-5.87,2-8.09,9.51-8.09,9.51"/><g class="cls-10"><polygon class="cls-1" points="117.64 12.92 168.37 12.92 422.07 287.08 364.26 287.08 117.64 12.92"/></g><polygon class="cls-9" points="112.93 50.46 112.93 56.03 117.9 56.03 112.93 50.46"/><polygon class="cls-9" points="112.93 57.92 112.93 63.49 117.9 63.49 112.93 57.92"/><polygon class="cls-9" points="119.9 57.92 119.9 63.49 124.87 63.49 119.9 57.92"/><circle class="cls-9" cx="120.14" cy="84.14" r="4.73"/><polygon class="cls-9" points="117.64 106.34 119.22 109.54 122.75 110.05 120.2 112.55 120.8 116.06 117.64 114.4 114.48 116.06 115.08 112.55 112.53 110.05 116.06 109.54 117.64 106.34"/><polygon class="cls-9" points="125.91 110.07 126.88 112.04 129.06 112.36 127.48 113.89 127.86 116.06 125.91 115.04 123.96 116.06 124.33 113.89 122.75 112.36 124.93 112.04 125.91 110.07"/><path class="cls-9" d="M124.19,143s-3.36-3.93,0-9.52c-5.87,2-8.09,9.52-8.09,9.52"/><path class="cls-9" d="M117.38,218.47c4.13,0,21.31-7,16.07,0s-9.5,3.79-9.5,3.79,7.49-2.08,6.48-3.08S118.85,220.8,117.38,218.47Z"/></g></g></svg>