<svg xmlns="http://www.w3.org/2000/svg" viewBox="0 0 520 300"><defs><style>.cls-1{fill:#fff;}.cls-2{fill:#ffe150;}.cls-3{fill:#6a6a6a;}.cls-4{fill:#cecece;}.cls-5{fill:#e0e0e0;}.cls-6{fill:#474747;}.cls-7{fill:#512e16;}.cls-8{fill:#f7a872;}.cls-9{fill:#e5925a;}.cls-10{fill:#333;}.cls-11{fill:#d56666;}.cls-12{fill:#c14444;}.cls-13{fill:#edc82b;}.cls-14{fill:#545454;}.cls-15{fill:none;stroke:#fff;stroke-miterlimit:10;stroke-width:0.5px;}.cls-16{fill:#1c1c1c;}</style></defs><title>Asset 3</title><g id="Layer_2" data-name="Layer 2"><g id="baggage"><rect class="cls-1" width="520" height="300"/><path class="cls-2" d="M512.38,216.8l-17.25-.25.71,7.14H435.53l-.89-6.25-17.24-.64V94.55a8.71,8.71,0,0,1,8.71-8.71h77.56a8.71,8.71,0,0,1,8.71,8.71Z"/><rect class="cls-1" x="483.82" y="107.43" width="1.01" height="91.97"/><rect class="cls-1" x="490.9" y="107.43" width="1.01" height="91.97"/><rect class="cls-1" x="497.99" y="107.43" width="1.01" height="91.97"/><rect class="cls-1" x="432.07" y="107.43" width="1.01" height="91.97"/><rect class="cls-1" x="439.16" y="107.43" width="1.01" height="91.97"/><rect class="cls-1" x="446.24" y="107.43" width="1.01" height="91.97"/><rect class="cls-3" x="441.83" y="85.62" width="46.12" height="2.64"/><rect class="cls-4" x="447.86" y="67.33" width="3.86" height="19.94"/><rect class="cls-4" x="477.43" y="67.33" width="4.3" height="19.94"/><rect class="cls-3" x="446.62" y="70.54" width="6.34" height="17.64"/><rect class="cls-3" x="476.41" y="70.54" width="6.34" height="17.64"/><path class="cls-3" d="M450.77,64.1h28.06A2.91,2.91,0,0,1,481.73,67v1.81a0,0,0,0,1,0,0H447.86a0,0,0,0,1,0,0V67A2.91,2.91,0,0,1,450.77,64.1Z"/><path class="cls-3" d="M434.09,213.81H415.31a11.34,11.34,0,0,0,1.36,5.41h14.4v5.17a.79.79,0,0,0,.79.79h6.26a.78.78,0,0,0,.78-.79v-5.77A4.81,4.81,0,0,0,434.09,213.81Z"/><path class="cls-3" d="M496.21,213.81H515a11.34,11.34,0,0,1-1.37,5.41h-14.4v5.17a.78.78,0,0,1-.78.79h-6.26a.78.78,0,0,1-.78-.79v-5.77A4.81,4.81,0,0,1,496.21,213.81Z"/><rect class="cls-3" x="420.45" y="219.81" width="8.73" height="4.58" transform="matrix(0.32, 0.95, -0.95, 0.32, 497.06, -251.79)"/><circle class="cls-3" cx="424.81" cy="228.83" r="6.55"/><rect class="cls-3" x="501.46" y="219.81" width="8.73" height="4.58" transform="translate(880.04 -184.3) rotate(108.93)"/><circle class="cls-3" cx="505.83" cy="228.83" r="6.55"/><path class="cls-3" d="M424.11,84.83h4.16a.78.78,0,0,1,.78.78v11a.78.78,0,0,1-.78.78h-11a.78.78,0,0,1-.78-.78V92.42A7.59,7.59,0,0,1,424.11,84.83Z"/><path class="cls-5" d="M422.63,86.94h2.25a0,0,0,0,1,0,0v0a5.69,5.69,0,0,1-5.69,5.69h0a0,0,0,0,1,0,0V90.38A3.44,3.44,0,0,1,422.63,86.94Z"/><path class="cls-3" d="M508.58,84.83h4.16a.78.78,0,0,1,.78.78v11a.78.78,0,0,1-.78.78h-11a.78.78,0,0,1-.78-.78V92.42A7.59,7.59,0,0,1,508.58,84.83Z" transform="translate(598.37 -416.16) rotate(90)"/><path class="cls-6" d="M156.74,220.39l-.2,9.53H74.78l1.7-9a1.16,1.16,0,0,1-1.16-1.16l-7.94-.54V190.65a13.06,13.06,0,0,1,13.06-13.06h70.21a13.06,13.06,0,0,1,13.06,13.06v28.58h-5.82A1.15,1.15,0,0,1,156.74,220.39Z"/><rect class="cls-1" x="78.97" y="182.11" width="72.24" height="0.67"/><path class="cls-3" d="M162.45,221.14h1.35A1.16,1.16,0,0,0,165,220v-1.61a1.16,1.16,0,0,0-1.16-1.16h-6.26a4.31,4.31,0,0,0-4.3,4.31v8.28A1.16,1.16,0,0,0,154.4,231h4a1.16,1.16,0,0,0,1.16-1.16V224A2.84,2.84,0,0,1,162.45,221.14Z"/><circle class="cls-5" cx="162.24" cy="219.23" r="1.12"/><circle class="cls-5" cx="156.19" cy="228.49" r="1.12"/><rect class="cls-3" x="160.14" y="221.64" width="6.27" height="13.74" rx="2.98" ry="2.98"/><path class="cls-3" d="M68.52,221.14H67.17A1.15,1.15,0,0,1,66,220v-1.61a1.15,1.15,0,0,1,1.15-1.16h6.26a4.31,4.31,0,0,1,4.31,4.31v8.28A1.16,1.16,0,0,1,76.58,231H72.52a1.15,1.15,0,0,1-1.15-1.16V224A2.85,2.85,0,0,0,68.52,221.14Z"/><circle class="cls-5" cx="68.73" cy="219.23" r="1.12"/><circle class="cls-5" cx="74.78" cy="228.49" r="1.12"/><rect class="cls-3" x="64.57" y="221.64" width="6.27" height="13.74" rx="2.98" ry="2.98" transform="translate(135.4 457.03) rotate(-180)"/><rect class="cls-3" x="95.17" y="186.16" width="39.94" height="4.99" rx="1.35" ry="1.35"/><path class="cls-7" d="M393.21,220.39l-.19,9.53H311.25l1.7-9a1.15,1.15,0,0,1-1.15-1.16l-7.95-.54V190.65a13.07,13.07,0,0,1,13.07-13.06h70.2a13.07,13.07,0,0,1,13.07,13.06v28.58h-5.82A1.16,1.16,0,0,1,393.21,220.39Z"/><rect class="cls-1" x="315.44" y="182.11" width="72.24" height="0.67"/><path class="cls-3" d="M398.93,221.14h1.34a1.16,1.16,0,0,0,1.16-1.16v-1.61a1.16,1.16,0,0,0-1.16-1.16H394a4.31,4.31,0,0,0-4.31,4.31v8.28a1.16,1.16,0,0,0,1.16,1.16h4.05a1.16,1.16,0,0,0,1.16-1.16V224A2.85,2.85,0,0,1,398.93,221.14Z"/><circle class="cls-5" cx="398.72" cy="219.23" r="1.12"/><circle class="cls-5" cx="392.67" cy="228.49" r="1.12"/><rect class="cls-3" x="396.61" y="221.64" width="6.27" height="13.74" rx="2.98" ry="2.98"/><path class="cls-3" d="M305,221.14h-1.35a1.16,1.16,0,0,1-1.16-1.16v-1.61a1.16,1.16,0,0,1,1.16-1.16h6.25a4.31,4.31,0,0,1,4.31,4.31v8.28a1.16,1.16,0,0,1-1.16,1.16H309a1.16,1.16,0,0,1-1.16-1.16V224A2.84,2.84,0,0,0,305,221.14Z"/><circle class="cls-5" cx="305.2" cy="219.23" r="1.12"/><circle class="cls-5" cx="311.25" cy="228.49" r="1.12"/><rect class="cls-3" x="301.04" y="221.64" width="6.27" height="13.74" rx="2.98" ry="2.98" transform="translate(608.35 457.03) rotate(-180)"/><rect class="cls-3" x="331.64" y="186.16" width="39.94" height="4.99" rx="1.35" ry="1.35"/><path class="cls-8" d="M172.78,124.23l-4.65,1.91-1-2.38L152.9,129.6a8.84,8.84,0,0,0-4.83,11.53l36,87.86a8.85,8.85,0,0,0,11.54,4.83L209.85,228l-1-2.38,4.66-1.91,1,2.38,16.72-6.86a8.84,8.84,0,0,0,4.84-11.53l-36-87.86A8.84,8.84,0,0,0,188.54,115l-16.73,6.85Z"/><path class="cls-9" d="M200.07,119.83l36,87.86a8.85,8.85,0,0,1-4.83,11.53l-4.55,1.87c-4.52,1.85-47.21-102.38-42.69-104.23l4.54-1.86A8.84,8.84,0,0,1,200.07,119.83Z"/><rect class="cls-8" x="186.94" y="159.51" width="59.68" height="9.55" rx="2.08" ry="2.08" transform="translate(146.94 427.17) rotate(-112.28)"/><path class="cls-1" d="M223.53,189.6l-19.7-48.08a1.92,1.92,0,0,1,1.06-2.51l2.64-1.09A1.93,1.93,0,0,1,210,139l19.7,48.09a1.93,1.93,0,0,1-1.06,2.51L226,190.65A1.93,1.93,0,0,1,223.53,189.6Zm-14.12-50.37a1.24,1.24,0,0,0-1.63-.68l-2.64,1.08a1.25,1.25,0,0,0-.68,1.63l19.7,48.08a1.25,1.25,0,0,0,1.63.69l2.64-1.08a1.26,1.26,0,0,0,.68-1.64Z"/><rect class="cls-1" x="173.37" y="135.53" width="0.67" height="92.8" transform="translate(-56 79.43) rotate(-22.28)"/><rect class="cls-4" x="137.98" y="173.5" width="105.47" height="2.94" transform="translate(101.1 417.77) rotate(-112.28)"/><rect class="cls-4" x="161.03" y="119.7" width="1.69" height="10.62" transform="translate(107.56 322.19) rotate(-112.28)"/><rect class="cls-9" x="157.12" y="174.29" width="51.61" height="7.74" transform="translate(278.44 -58.65) rotate(67.72)"/><rect class="cls-1" x="170.61" y="156.52" width="8.16" height="3.07" transform="translate(254.73 -63.51) rotate(67.72)"/><rect class="cls-1" x="187.08" y="196.72" width="8.16" height="3.07" transform="translate(302.16 -53.79) rotate(67.72)"/><path class="cls-6" d="M405.87,145.89l0-5h2.56l.05-15.4a8.84,8.84,0,0,0-8.82-8.86l-94.95-.26a8.84,8.84,0,0,0-8.86,8.82l0,15.4h2.56v5h-2.57l-.05,18.08a8.86,8.86,0,0,0,8.82,8.87l94.95.25a8.84,8.84,0,0,0,8.86-8.82l.05-18.08Z"/><path class="cls-10" d="M399.53,172.79l-94.95-.25a8.86,8.86,0,0,1-8.82-8.87l0-4.91c0-4.88,112.64-4.58,112.63.3l0,4.91A8.84,8.84,0,0,1,399.53,172.79Z"/><rect class="cls-6" x="322.22" y="166.5" width="59.68" height="9.55" rx="2.08" ry="2.08" transform="translate(0.46 -0.95) rotate(0.15)"/><path class="cls-1" d="M326.09,167.85l52,.14a1.94,1.94,0,0,1,1.92,1.93v2.86A1.93,1.93,0,0,1,378,174.7l-52-.14a1.94,1.94,0,0,1-1.92-1.93v-2.86A1.92,1.92,0,0,1,326.09,167.85ZM378,174a1.25,1.25,0,0,0,1.26-1.24v-2.86a1.24,1.24,0,0,0-1.24-1.25l-52-.14a1.24,1.24,0,0,0-1.25,1.24v2.86a1.25,1.25,0,0,0,1.25,1.25Z"/><rect class="cls-1" x="351.85" y="78.32" width="0.67" height="92.8" transform="translate(226.51 476.57) rotate(-89.85)"/><rect class="cls-4" x="299.4" y="141.63" width="105.47" height="2.94" transform="translate(0.39 -0.95) rotate(0.15)"/><rect class="cls-4" x="408.47" y="130.2" width="1.69" height="10.62" transform="translate(0.37 -1.1) rotate(0.15)"/><rect class="cls-10" x="326.35" y="130.81" width="51.61" height="7.74" transform="translate(703.95 270.32) rotate(-179.85)"/><rect class="cls-1" x="369.8" y="133.2" width="8.16" height="3.07" transform="translate(747.39 270.49) rotate(-179.85)"/><rect class="cls-1" x="326.35" y="133.09" width="8.16" height="3.07" transform="translate(660.5 270.14) rotate(-179.85)"/><path class="cls-11" d="M254.17,231.56h37.69a6.11,6.11,0,0,0,6-7.09l-5.13-31.91a19.53,19.53,0,0,0-19.29-16.44h0A19.54,19.54,0,0,0,254.29,192l-6.14,32.27A6.12,6.12,0,0,0,254.17,231.56Z"/><path class="cls-12" d="M262.18,202.05h21.67a1,1,0,0,1,1,1v10.84a11.8,11.8,0,0,1-11.8,11.8h0a11.8,11.8,0,0,1-11.8-11.8V203a1,1,0,0,1,1-1Z" transform="translate(546.02 427.7) rotate(-180)"/><rect class="cls-4" x="270.83" y="176.12" width="4.36" height="10.2" transform="translate(546.02 362.45) rotate(-180)"/><rect class="cls-4" x="266.41" y="189.65" width="13.21" height="3.11" transform="translate(546.02 382.41) rotate(-180)"/><path class="cls-10" d="M268.82,193.69v-2h8.39v2a4.2,4.2,0,0,1-8.39,0Zm.67-1.29v1.29a3.52,3.52,0,0,0,7,0V192.4Z"/><path class="cls-3" d="M274.15,162.62a1.71,1.71,0,0,1,2.12-1.4c9.56,3.81,17,16,19,29.44,1.36,9.08-1,13.68-1,13.68l-.6-4.55-2.15-10.93c-1.47-9.12-8.85-20.33-15.94-24.1-.9-.48-1.67-1.13-1.46-2.14Zm-.78,2.38a1.78,1.78,0,0,1-1.56,1.73c-8.65,1.26-14.62,14.93-17.15,23.68l-1.43,8.41-.69,4.7a49,49,0,0,1-.73-13.93c.79-10.66,9.72-24.89,19.55-26.43a1.75,1.75,0,0,1,2,1.75Z"/><path class="cls-3" d="M250.14,228.65c1.91,0,4.47-.75,7.86-3,7.29-4.92,15.62-24.65,16.65-28.6a.23.23,0,0,0-.3-.27,4.21,4.21,0,0,1-1.58.27,4.54,4.54,0,0,1-1.38-.26.44.44,0,0,0-.57.25c-2.55,6.3-9.49,21.85-14.91,25.51-3.48,2.35-6.35,3-7.31,1.75-1.52-2.06.16-8.41,6.16-13.29l-2.35-2.9c-7.63,6.21-9.68,14.53-6.81,18.41A5.44,5.44,0,0,0,250.14,228.65Z"/><polygon class="cls-11" points="252.65 200.8 248.96 220.22 254.58 212.99 259.21 202.25 252.65 200.8"/><path class="cls-2" d="M115.69,176.3H78a6.11,6.11,0,0,1-6-7.09l5.13-31.91a19.53,19.53,0,0,1,19.29-16.44h0a19.54,19.54,0,0,1,19.19,15.9L121.71,169A6.13,6.13,0,0,1,115.69,176.3Z"/><path class="cls-13" d="M96.85,146.79h0a11.8,11.8,0,0,1,11.8,11.8v10.84a1,1,0,0,1-1,1H86a1,1,0,0,1-1-1V158.59a11.8,11.8,0,0,1,11.8-11.8Z"/><rect class="cls-4" x="94.67" y="120.86" width="4.36" height="10.2"/><rect class="cls-4" x="90.24" y="134.39" width="13.21" height="3.11"/><path class="cls-10" d="M96.85,142.63a4.21,4.21,0,0,1-4.2-4.2v-2H101v2A4.2,4.2,0,0,1,96.85,142.63Zm-3.52-5.49v1.29a3.52,3.52,0,1,0,7,0v-1.29Z"/><path class="cls-3" d="M95.71,107.36c.21,1-.56,1.67-1.46,2.15-7.09,3.76-14.47,15-15.94,24.09l-2.15,10.93-.6,4.55s-2.36-4.6-1-13.68c2-13.41,9.47-25.63,19-29.44a1.71,1.71,0,0,1,2.12,1.4Zm.78,2.29a1.75,1.75,0,0,1,2-1.75c9.83,1.55,18.76,15.77,19.55,26.43a49,49,0,0,1-.73,13.93l-.69-4.7-1.43-8.41c-2.53-8.75-8.5-22.42-17.15-23.68a1.77,1.77,0,0,1-1.56-1.73Z"/><path class="cls-3" d="M119.72,173.39c-1.91,0-4.47-.75-7.86-3-7.29-4.92-15.62-24.65-16.65-28.6a.22.22,0,0,1,.3-.27,4.21,4.21,0,0,0,1.58.27,4.54,4.54,0,0,0,1.38-.26.44.44,0,0,1,.57.25c2.55,6.3,9.48,21.85,14.91,25.51,3.48,2.35,6.35,3,7.31,1.75,1.52-2.06-.16-8.41-6.17-13.29l2.36-2.9c7.63,6.21,9.68,14.53,6.81,18.41A5.44,5.44,0,0,1,119.72,173.39Z"/><polygon class="cls-2" points="117.21 145.54 120.9 164.96 115.28 157.73 110.65 146.99 117.21 145.54"/><path class="cls-10" d="M59.35,224.2l-5.55-.41-4.43,4L49,232.91H12.64l-.5-6.25L5.48,228V112.78c0-4.81,2.21-8.71,4.94-8.71h44c2.73,0,4.94,3.9,4.94,8.71Z"/><path class="cls-3" d="M9.72,103.06h2.59a.49.49,0,0,1,.49.49v6.82a.49.49,0,0,1-.49.49H5.49a.49.49,0,0,1-.49-.49v-2.59A4.72,4.72,0,0,1,9.72,103.06Z"/><path class="cls-3" d="M9.72,226.2h2.59a.49.49,0,0,1,.49.49v6.82a.49.49,0,0,1-.49.49H5.49a.49.49,0,0,1-.49-.49v-2.59A4.72,4.72,0,0,1,9.72,226.2Z" transform="translate(-221.2 238.99) rotate(-90)"/><path class="cls-5" d="M8.8,104.37h1.4a0,0,0,0,1,0,0v0a3.54,3.54,0,0,1-3.54,3.54h0a0,0,0,0,1,0,0v-1.4A2.14,2.14,0,0,1,8.8,104.37Z"/><path class="cls-3" d="M53.66,103.06h6.82a.49.49,0,0,1,.49.49v6.82a.49.49,0,0,1-.49.49H57.89a4.72,4.72,0,0,1-4.72-4.72v-2.59a.49.49,0,0,1,.49-.49Z" transform="translate(114.13 213.91) rotate(-180)"/><rect class="cls-14" x="26.98" y="103.53" width="4.85" height="130.47"/><rect class="cls-3" x="19.45" y="155.72" width="4.96" height="22.19"/><line class="cls-15" x1="28.38" y1="103.53" x2="28.38" y2="233.99"/><rect class="cls-16" x="43.41" y="142.15" width="7.7" height="49.32"/><rect class="cls-3" x="45.76" y="142.15" width="2.99" height="7.59"/><rect class="cls-14" x="45.76" y="183.89" width="2.99" height="7.59"/><circle class="cls-3" cx="55.9" cy="230.58" r="5.32"/><path class="cls-3" d="M59.68,222.82a8.92,8.92,0,0,0-7.8,0,7.58,7.58,0,0,0-3.49,3.32,8.88,8.88,0,0,0-.45,7.74.38.38,0,0,0,.35.23h1.77a.41.41,0,0,0,.36-.61,6.44,6.44,0,0,1,0-6.11,6.22,6.22,0,0,1,2.33-2.31,6.36,6.36,0,0,1,6.89.53.44.44,0,0,0,.7-.35V224A1.26,1.26,0,0,0,59.68,222.82Z"/><path class="cls-3" d="M15.21,232.91H20.3a0,0,0,0,1,0,0v1.83a1.15,1.15,0,0,1-1.15,1.15H16.36a1.15,1.15,0,0,1-1.15-1.15v-1.83A0,0,0,0,1,15.21,232.91Z"/></g></g></svg>